<svg id="svg" version="1.1" xmlns="http://www.w3.org/2000/svg" xmlns:xlink="http://www.w3.org/1999/xlink" width="400" height="205.92592592592592" viewBox="0, 0, 400,205.92592592592592"><g id="svgg"><path id="path0" d="M92.625 42.791 C 92.116 43.669,90.192 47.075,88.350 50.360 C 83.052 59.809,76.757 71.049,74.566 74.974 C 70.909 81.525,67.890 86.926,63.340 95.057 C 60.868 99.475,57.758 105.036,56.430 107.415 C 55.101 109.794,53.677 112.333,53.264 113.057 C 52.851 113.781,52.546 114.407,52.587 114.448 C 52.628 114.489,71.107 114.499,93.653 114.470 L 134.644 114.418 132.283 110.196 C 130.985 107.873,129.018 104.351,127.911 102.369 C 124.435 96.138,121.344 90.608,116.166 81.359 C 111.166 72.426,109.479 69.407,105.473 62.219 C 104.309 60.131,102.613 57.119,101.703 55.525 C 100.262 52.999,96.569 46.409,94.393 42.482 C 93.528 40.920,93.731 40.884,92.625 42.791 " stroke="none" fill="#dc4133" fill-rule="evenodd"></path><path id="path1" d="M127.325 42.692 C 126.633 43.982,124.634 47.553,120.438 54.995 C 119.193 57.204,117.550 60.124,116.787 61.483 C 116.024 62.842,114.507 65.541,113.416 67.481 C 112.325 69.420,111.432 71.095,111.432 71.202 C 111.432 71.309,112.416 73.152,113.619 75.297 C 114.821 77.442,116.710 80.819,117.816 82.801 C 120.434 87.496,123.918 93.729,127.084 99.382 C 128.480 101.874,130.471 105.443,131.509 107.312 C 132.547 109.181,133.887 111.568,134.487 112.616 L 135.577 114.521 152.340 114.521 C 161.560 114.521,169.104 114.466,169.104 114.399 C 169.104 114.332,168.392 113.011,167.521 111.464 C 166.651 109.917,165.137 107.214,164.157 105.458 C 163.177 103.702,161.232 100.227,159.835 97.734 C 157.142 92.930,153.801 86.956,150.678 81.359 C 145.350 71.814,137.738 58.231,134.285 52.111 C 133.231 50.242,131.470 47.095,130.373 45.117 C 128.044 40.921,128.205 41.049,127.325 42.692 M161.792 42.430 C 161.616 42.770,161.519 43.048,161.575 43.048 C 161.632 43.048,161.822 42.770,161.998 42.430 C 162.174 42.091,162.271 41.813,162.214 41.813 C 162.158 41.813,161.968 42.091,161.792 42.430 M163.195 42.533 C 163.369 42.873,163.665 43.337,163.854 43.563 C 164.042 43.790,163.988 43.605,163.733 43.151 C 163.172 42.152,162.752 41.670,163.195 42.533 M160.556 44.696 C 160.380 45.036,160.283 45.314,160.340 45.314 C 160.396 45.314,160.586 45.036,160.762 44.696 C 160.938 44.356,161.035 44.078,160.979 44.078 C 160.922 44.078,160.732 44.356,160.556 44.696 M159.774 46.087 C 159.727 46.171,159.428 46.704,159.110 47.271 C 158.792 47.837,158.627 48.208,158.744 48.095 C 159.042 47.806,160.104 45.932,159.970 45.932 C 159.909 45.932,159.821 46.002,159.774 46.087 M165.911 47.374 C 166.087 47.714,166.277 47.992,166.334 47.992 C 166.391 47.992,166.293 47.714,166.117 47.374 C 165.942 47.034,165.752 46.756,165.695 46.756 C 165.638 46.756,165.736 47.034,165.911 47.374 M167.044 49.434 C 167.275 49.887,167.511 50.257,167.568 50.257 C 167.624 50.257,167.481 49.887,167.250 49.434 C 167.019 48.980,166.784 48.610,166.727 48.610 C 166.670 48.610,166.813 48.980,167.044 49.434 M156.849 51.287 C 156.673 51.627,156.575 51.905,156.632 51.905 C 156.689 51.905,156.879 51.627,157.055 51.287 C 157.230 50.947,157.328 50.669,157.271 50.669 C 157.214 50.669,157.024 50.947,156.849 51.287 M168.074 51.177 C 168.074 51.393,168.901 52.729,169.035 52.729 C 169.091 52.729,168.929 52.382,168.673 51.957 C 168.104 51.010,168.074 50.972,168.074 51.177 M155.716 53.347 C 155.485 53.800,155.342 54.171,155.398 54.171 C 155.455 54.171,155.691 53.800,155.922 53.347 C 156.153 52.894,156.296 52.523,156.239 52.523 C 156.182 52.523,155.947 52.894,155.716 53.347 M154.522 55.421 C 154.265 55.866,154.097 56.231,154.148 56.231 C 154.290 56.231,155.155 54.778,155.066 54.689 C 155.023 54.646,154.778 54.975,154.522 55.421 M153.141 57.878 C 152.965 58.218,152.868 58.496,152.925 58.496 C 152.981 58.496,153.171 58.218,153.347 57.878 C 153.523 57.539,153.620 57.261,153.564 57.261 C 153.507 57.261,153.317 57.539,153.141 57.878 M172.091 58.496 C 172.266 58.836,172.457 59.114,172.513 59.114 C 172.570 59.114,172.472 58.836,172.297 58.496 C 172.121 58.157,171.931 57.878,171.874 57.878 C 171.817 57.878,171.915 58.157,172.091 58.496 M152.189 59.578 C 152.055 59.833,151.810 60.273,151.645 60.556 C 151.359 61.050,151.361 61.054,151.693 60.659 C 152.104 60.171,152.680 59.114,152.536 59.114 C 152.480 59.114,152.324 59.323,152.189 59.578 M173.081 60.247 C 173.256 60.587,173.552 61.050,173.740 61.277 C 173.929 61.504,173.875 61.318,173.620 60.865 C 173.059 59.865,172.638 59.383,173.081 60.247 M150.463 62.616 C 150.288 62.956,150.190 63.234,150.247 63.234 C 150.304 63.234,150.494 62.956,150.669 62.616 C 150.845 62.276,150.943 61.998,150.886 61.998 C 150.829 61.998,150.639 62.276,150.463 62.616 M174.257 62.244 C 174.252 62.430,175.092 63.852,175.206 63.852 C 175.254 63.852,175.156 63.597,174.987 63.285 C 174.567 62.510,174.260 62.072,174.257 62.244 M149.434 64.470 C 149.258 64.809,149.160 65.088,149.217 65.088 C 149.274 65.088,149.464 64.809,149.640 64.470 C 149.815 64.130,149.913 63.852,149.856 63.852 C 149.799 63.852,149.609 64.130,149.434 64.470 M148.198 66.735 C 148.022 67.075,147.925 67.353,147.981 67.353 C 148.038 67.353,148.228 67.075,148.404 66.735 C 148.579 66.395,148.677 66.117,148.620 66.117 C 148.564 66.117,148.373 66.395,148.198 66.735 M177.034 67.353 C 177.210 67.693,177.400 67.971,177.457 67.971 C 177.513 67.971,177.416 67.693,177.240 67.353 C 177.064 67.013,176.874 66.735,176.817 66.735 C 176.761 66.735,176.858 67.013,177.034 67.353 M147.349 68.229 C 147.159 68.597,146.869 69.130,146.704 69.413 C 146.416 69.907,146.418 69.911,146.750 69.516 C 147.156 69.034,147.944 67.559,147.795 67.559 C 147.739 67.559,147.538 67.860,147.349 68.229 M179.712 72.091 C 179.887 72.430,180.078 72.709,180.134 72.709 C 180.191 72.709,180.093 72.430,179.918 72.091 C 179.742 71.751,179.552 71.473,179.495 71.473 C 179.438 71.473,179.536 71.751,179.712 72.091 M180.742 73.944 C 180.917 74.284,181.107 74.562,181.164 74.562 C 181.221 74.562,181.123 74.284,180.947 73.944 C 180.772 73.605,180.582 73.326,180.525 73.326 C 180.468 73.326,180.566 73.605,180.742 73.944 M148.198 75.386 C 148.373 75.726,148.564 76.004,148.620 76.004 C 148.677 76.004,148.579 75.726,148.404 75.386 C 148.228 75.046,148.038 74.768,147.981 74.768 C 147.925 74.768,148.022 75.046,148.198 75.386 M181.971 76.197 C 182.143 76.530,182.377 76.860,182.491 76.930 C 182.605 77.001,182.504 76.729,182.266 76.325 C 181.745 75.441,181.532 75.349,181.971 76.197 M149.434 77.652 C 149.609 77.992,149.799 78.270,149.856 78.270 C 149.913 78.270,149.815 77.992,149.640 77.652 C 149.464 77.312,149.274 77.034,149.217 77.034 C 149.160 77.034,149.258 77.312,149.434 77.652 M150.463 79.506 C 150.639 79.846,150.829 80.124,150.886 80.124 C 150.943 80.124,150.845 79.846,150.669 79.506 C 150.494 79.166,150.304 78.888,150.247 78.888 C 150.190 78.888,150.288 79.166,150.463 79.506 M184.655 80.947 C 184.831 81.287,185.021 81.565,185.078 81.565 C 185.134 81.565,185.037 81.287,184.861 80.947 C 184.685 80.608,184.495 80.330,184.438 80.330 C 184.382 80.330,184.479 80.608,184.655 80.947 M151.818 81.874 C 152.072 82.327,152.369 82.791,152.477 82.904 C 152.785 83.227,152.080 81.923,151.697 81.462 C 151.509 81.236,151.563 81.421,151.818 81.874 M185.685 82.801 C 185.861 83.141,186.051 83.419,186.107 83.419 C 186.164 83.419,186.067 83.141,185.891 82.801 C 185.715 82.461,185.525 82.183,185.468 82.183 C 185.412 82.183,185.509 82.461,185.685 82.801 M153.141 84.243 C 153.317 84.583,153.507 84.861,153.564 84.861 C 153.620 84.861,153.523 84.583,153.347 84.243 C 153.171 83.903,152.981 83.625,152.925 83.625 C 152.868 83.625,152.965 83.903,153.141 84.243 M186.792 84.795 C 187.030 85.269,187.335 85.726,187.472 85.810 C 187.609 85.895,187.502 85.600,187.236 85.155 C 186.540 83.993,186.287 83.788,186.792 84.795 M154.377 86.509 C 154.553 86.849,154.743 87.127,154.799 87.127 C 154.856 87.127,154.759 86.849,154.583 86.509 C 154.407 86.169,154.217 85.891,154.160 85.891 C 154.104 85.891,154.201 86.169,154.377 86.509 M188.363 87.539 C 188.538 87.878,188.728 88.157,188.785 88.157 C 188.842 88.157,188.744 87.878,188.568 87.539 C 188.393 87.199,188.203 86.921,188.146 86.921 C 188.089 86.921,188.187 87.199,188.363 87.539 M155.491 88.465 C 155.849 89.164,156.121 89.507,156.125 89.261 C 156.126 89.132,155.937 88.807,155.704 88.540 C 155.371 88.158,155.326 88.142,155.491 88.465 M189.598 89.804 C 189.774 90.144,189.964 90.422,190.021 90.422 C 190.078 90.422,189.980 90.144,189.804 89.804 C 189.629 89.464,189.438 89.186,189.382 89.186 C 189.325 89.186,189.423 89.464,189.598 89.804 M156.636 90.525 C 156.953 91.092,157.308 91.648,157.425 91.761 C 157.542 91.874,157.378 91.504,157.061 90.937 C 156.744 90.371,156.389 89.815,156.272 89.701 C 156.156 89.588,156.319 89.959,156.636 90.525 M190.589 91.555 C 190.763 91.895,191.060 92.358,191.248 92.585 C 191.436 92.812,191.382 92.626,191.128 92.173 C 190.567 91.173,190.146 90.691,190.589 91.555 M158.084 93.100 C 158.260 93.440,158.450 93.718,158.507 93.718 C 158.564 93.718,158.466 93.440,158.290 93.100 C 158.115 92.760,157.925 92.482,157.868 92.482 C 157.811 92.482,157.909 92.760,158.084 93.100 M191.555 93.196 C 191.555 93.411,192.382 94.748,192.516 94.748 C 192.572 94.748,192.410 94.400,192.154 93.975 C 191.585 93.029,191.555 92.990,191.555 93.196 M193.306 96.395 C 193.482 96.735,193.672 97.013,193.728 97.013 C 193.785 97.013,193.688 96.735,193.512 96.395 C 193.336 96.056,193.146 95.778,193.089 95.778 C 193.033 95.778,193.130 96.056,193.306 96.395 M160.791 97.935 C 161.078 98.448,161.353 98.867,161.402 98.867 C 161.546 98.867,160.684 97.259,160.468 97.125 C 160.359 97.058,160.505 97.423,160.791 97.935 M194.542 98.661 C 194.717 99.001,194.908 99.279,194.964 99.279 C 195.021 99.279,194.923 99.001,194.748 98.661 C 194.572 98.321,194.382 98.043,194.325 98.043 C 194.269 98.043,194.366 98.321,194.542 98.661 M161.895 99.897 C 162.126 100.350,162.362 100.721,162.418 100.721 C 162.475 100.721,162.332 100.350,162.101 99.897 C 161.870 99.444,161.634 99.073,161.578 99.073 C 161.521 99.073,161.664 99.444,161.895 99.897 M195.430 100.206 C 195.660 100.659,196.000 101.215,196.186 101.442 C 196.372 101.668,196.272 101.390,195.963 100.824 C 195.271 99.556,194.854 99.073,195.430 100.206 M163.028 101.957 C 163.204 102.297,163.394 102.575,163.450 102.575 C 163.507 102.575,163.410 102.297,163.234 101.957 C 163.058 101.617,162.868 101.339,162.811 101.339 C 162.755 101.339,162.852 101.617,163.028 101.957 M164.409 104.415 C 164.665 104.860,164.910 105.189,164.953 105.146 C 165.042 105.057,164.177 103.605,164.035 103.605 C 163.984 103.605,164.152 103.969,164.409 104.415 M198.249 105.252 C 198.425 105.592,198.615 105.870,198.672 105.870 C 198.728 105.870,198.631 105.592,198.455 105.252 C 198.279 104.912,198.089 104.634,198.033 104.634 C 197.976 104.634,198.073 104.912,198.249 105.252 M165.412 106.179 C 165.666 106.632,165.963 107.096,166.071 107.209 C 166.379 107.532,165.674 106.227,165.291 105.767 C 165.103 105.541,165.157 105.726,165.412 106.179 M199.808 108.084 C 200.285 108.962,200.818 109.820,200.992 109.990 C 201.277 110.268,201.278 110.247,200.998 109.784 C 200.826 109.501,200.338 108.643,199.913 107.878 C 199.488 107.114,199.096 106.488,199.041 106.488 C 198.986 106.488,199.332 107.206,199.808 108.084 M166.735 108.548 C 166.911 108.888,167.101 109.166,167.158 109.166 C 167.214 109.166,167.117 108.888,166.941 108.548 C 166.766 108.208,166.575 107.930,166.519 107.930 C 166.462 107.930,166.560 108.208,166.735 108.548 M167.971 110.814 C 168.147 111.153,168.337 111.432,168.394 111.432 C 168.450 111.432,168.353 111.153,168.177 110.814 C 168.001 110.474,167.811 110.196,167.755 110.196 C 167.698 110.196,167.795 110.474,167.971 110.814 M169.241 113.068 C 169.556 113.628,169.847 114.052,169.889 114.011 C 169.978 113.922,168.903 112.049,168.764 112.049 C 168.711 112.049,168.926 112.508,169.241 113.068 " stroke="none" fill="#efa92c" fill-rule="evenodd"></path><path id="path2" d="M161.171 43.903 C 160.404 45.302,159.292 47.281,158.700 48.301 C 158.108 49.320,157.124 51.068,156.515 52.185 C 155.905 53.301,155.212 54.552,154.973 54.965 C 154.734 55.378,153.939 56.782,153.206 58.084 C 152.473 59.387,151.636 60.870,151.346 61.380 C 151.055 61.890,149.914 63.929,148.810 65.911 C 147.706 67.894,146.609 69.856,146.372 70.270 C 145.888 71.119,145.869 71.054,147.319 73.565 C 147.689 74.206,148.863 76.291,149.928 78.199 C 153.137 83.949,155.577 88.309,156.231 89.462 C 156.571 90.062,157.669 92.029,158.672 93.834 C 160.274 96.717,163.537 102.550,164.887 104.943 C 166.814 108.360,169.454 113.110,169.781 113.749 L 170.177 114.521 186.736 114.521 C 195.844 114.521,203.294 114.452,203.291 114.367 C 203.289 114.282,202.756 113.265,202.107 112.108 C 201.458 110.950,200.037 108.401,198.949 106.443 C 197.861 104.486,196.755 102.513,196.491 102.060 C 196.227 101.607,195.135 99.660,194.064 97.734 C 192.993 95.808,191.906 93.862,191.650 93.409 C 190.793 91.896,187.357 85.737,185.246 81.930 C 184.099 79.860,182.969 77.842,182.736 77.446 C 182.503 77.049,181.495 75.252,180.497 73.451 C 179.499 71.650,178.385 69.657,178.022 69.022 C 177.659 68.388,176.825 66.899,176.168 65.715 C 174.777 63.206,174.315 62.382,171.893 58.084 C 170.904 56.329,169.794 54.336,169.426 53.656 C 169.059 52.976,168.522 52.003,168.233 51.493 C 167.945 50.984,166.805 48.944,165.702 46.962 C 164.598 44.979,163.441 42.908,163.130 42.359 L 162.564 41.360 161.171 43.903 " stroke="none" fill="#ffda1c" fill-rule="evenodd"></path><path id="path3" d="M195.347 44.027 C 194.476 45.584,192.882 48.435,191.805 50.360 C 190.727 52.286,189.544 54.372,189.176 54.995 C 188.807 55.618,187.632 57.703,186.565 59.629 C 185.498 61.555,183.682 64.814,182.529 66.872 C 181.376 68.930,180.379 70.754,180.313 70.926 C 180.242 71.112,181.840 74.183,184.262 78.513 C 188.575 86.225,191.770 91.943,195.059 97.837 C 196.165 99.820,198.111 103.296,199.383 105.561 C 200.655 107.827,202.296 110.770,203.029 112.101 L 204.363 114.521 221.246 114.521 C 230.532 114.521,238.088 114.452,238.038 114.367 C 237.988 114.282,235.929 110.597,233.463 106.179 C 230.996 101.761,227.916 96.246,226.618 93.924 C 225.320 91.601,223.354 88.079,222.248 86.097 C 221.142 84.114,218.963 80.221,217.405 77.446 C 214.403 72.097,211.360 66.651,209.006 62.410 C 208.220 60.994,206.162 57.333,204.433 54.274 C 202.704 51.215,200.340 47.021,199.179 44.954 C 198.018 42.886,197.037 41.195,197.000 41.195 C 196.962 41.195,196.219 42.469,195.347 44.027 M178.440 114.676 C 183.064 114.706,190.572 114.706,195.123 114.676 C 199.675 114.645,195.891 114.619,186.715 114.619 C 177.539 114.619,173.815 114.645,178.440 114.676 " stroke="none" fill="#41ac4a" fill-rule="evenodd"></path><path id="path4" d="M228.918 43.310 C 226.859 47.035,223.934 52.263,222.150 55.407 C 221.154 57.163,219.485 60.129,218.441 61.998 C 217.397 63.867,216.358 65.721,216.132 66.117 C 215.905 66.514,215.342 67.533,214.880 68.383 L 214.041 69.928 216.519 74.356 C 221.471 83.205,223.989 87.714,225.983 91.309 C 227.102 93.326,228.148 95.180,228.306 95.429 C 228.465 95.677,229.518 97.549,230.646 99.588 C 231.774 101.627,233.527 104.779,234.542 106.591 C 235.557 108.404,236.969 110.929,237.681 112.204 L 238.974 114.521 255.017 114.521 C 263.841 114.521,271.061 114.449,271.061 114.361 C 271.061 114.273,270.927 114.011,270.765 113.778 C 270.602 113.545,269.338 111.323,267.956 108.840 C 264.243 102.169,261.949 98.061,259.111 92.997 C 256.750 88.784,255.435 86.430,249.852 76.416 C 248.684 74.320,247.610 72.420,247.466 72.194 C 247.321 71.967,246.281 70.113,245.153 68.074 C 242.563 63.393,239.922 58.674,237.602 54.583 C 236.606 52.827,234.631 49.306,233.212 46.758 C 230.328 41.581,230.222 41.399,230.074 41.405 C 230.016 41.408,229.496 42.265,228.918 43.310 " stroke="none" fill="#00b8e0" fill-rule="evenodd"></path><path id="path5" d="M262.855 42.485 C 262.179 43.747,259.996 47.652,256.437 53.965 C 254.479 57.439,251.940 61.956,249.154 66.921 C 248.175 68.665,247.374 70.177,247.374 70.279 C 247.374 70.466,248.476 72.481,253.043 80.639 C 257.562 88.711,260.183 93.398,262.718 97.940 C 266.090 103.983,269.733 110.502,270.977 112.718 L 271.988 114.520 288.311 114.520 C 297.289 114.521,304.634 114.463,304.634 114.391 C 304.634 114.250,303.550 112.274,299.791 105.561 C 294.665 96.410,292.330 92.235,290.115 88.260 C 288.853 85.994,285.793 80.525,283.317 76.107 C 280.840 71.689,277.963 66.545,276.923 64.676 C 275.884 62.806,274.220 59.840,273.226 58.084 C 270.879 53.940,267.068 47.145,265.227 43.821 C 263.527 40.753,263.724 40.864,262.855 42.485 M229.145 42.636 C 228.969 42.976,228.872 43.254,228.929 43.254 C 228.985 43.254,229.175 42.976,229.351 42.636 C 229.527 42.297,229.624 42.019,229.568 42.019 C 229.511 42.019,229.321 42.297,229.145 42.636 M231.823 44.284 C 231.999 44.624,232.189 44.902,232.245 44.902 C 232.302 44.902,232.205 44.624,232.029 44.284 C 231.853 43.944,231.663 43.666,231.606 43.666 C 231.550 43.666,231.647 43.944,231.823 44.284 M228.194 44.336 C 228.059 44.591,227.814 45.031,227.650 45.314 C 227.363 45.808,227.365 45.812,227.697 45.417 C 228.108 44.929,228.684 43.872,228.540 43.872 C 228.484 43.872,228.328 44.081,228.194 44.336 M226.468 47.374 C 226.292 47.714,226.194 47.992,226.251 47.992 C 226.308 47.992,226.498 47.714,226.674 47.374 C 226.849 47.034,226.947 46.756,226.890 46.756 C 226.833 46.756,226.643 47.034,226.468 47.374 M234.089 48.404 C 234.264 48.744,234.454 49.022,234.511 49.022 C 234.568 49.022,234.470 48.744,234.295 48.404 C 234.119 48.064,233.929 47.786,233.872 47.786 C 233.815 47.786,233.913 48.064,234.089 48.404 M225.438 49.228 C 225.262 49.567,225.164 49.846,225.221 49.846 C 225.278 49.846,225.468 49.567,225.644 49.228 C 225.819 48.888,225.917 48.610,225.860 48.610 C 225.804 48.610,225.613 48.888,225.438 49.228 M235.118 50.257 C 235.294 50.597,235.484 50.875,235.541 50.875 C 235.598 50.875,235.500 50.597,235.324 50.257 C 235.149 49.918,234.959 49.640,234.902 49.640 C 234.845 49.640,234.943 49.918,235.118 50.257 M224.202 51.493 C 224.026 51.833,223.929 52.111,223.985 52.111 C 224.042 52.111,224.232 51.833,224.408 51.493 C 224.584 51.153,224.681 50.875,224.624 50.875 C 224.568 50.875,224.378 51.153,224.202 51.493 M236.766 53.141 C 236.942 53.481,237.132 53.759,237.189 53.759 C 237.245 53.759,237.148 53.481,236.972 53.141 C 236.796 52.801,236.606 52.523,236.550 52.523 C 236.493 52.523,236.590 52.801,236.766 53.141 M237.796 54.995 C 237.972 55.335,238.162 55.613,238.219 55.613 C 238.275 55.613,238.178 55.335,238.002 54.995 C 237.826 54.655,237.636 54.377,237.580 54.377 C 237.523 54.377,237.620 54.655,237.796 54.995 M221.730 55.819 C 221.554 56.159,221.457 56.437,221.514 56.437 C 221.570 56.437,221.760 56.159,221.936 55.819 C 222.112 55.479,222.209 55.201,222.153 55.201 C 222.096 55.201,221.906 55.479,221.730 55.819 M238.819 56.746 C 239.136 57.312,239.491 57.868,239.608 57.981 C 239.725 58.095,239.561 57.724,239.244 57.158 C 238.927 56.591,238.573 56.035,238.456 55.922 C 238.339 55.808,238.503 56.179,238.819 56.746 M220.948 57.209 C 220.901 57.294,220.602 57.827,220.284 58.393 C 219.966 58.960,219.801 59.331,219.918 59.217 C 220.216 58.928,221.278 57.055,221.144 57.055 C 221.083 57.055,220.995 57.124,220.948 57.209 M219.053 60.556 C 218.877 60.896,218.779 61.174,218.836 61.174 C 218.893 61.174,219.083 60.896,219.258 60.556 C 219.434 60.216,219.532 59.938,219.475 59.938 C 219.418 59.938,219.228 60.216,219.053 60.556 M241.504 61.586 C 241.679 61.926,241.869 62.204,241.926 62.204 C 241.983 62.204,241.885 61.926,241.710 61.586 C 241.534 61.246,241.344 60.968,241.287 60.968 C 241.230 60.968,241.328 61.246,241.504 61.586 M242.533 63.440 C 242.709 63.780,242.899 64.058,242.956 64.058 C 243.013 64.058,242.915 63.780,242.739 63.440 C 242.564 63.100,242.374 62.822,242.317 62.822 C 242.260 62.822,242.358 63.100,242.533 63.440 M216.787 64.676 C 216.611 65.015,216.514 65.294,216.570 65.294 C 216.627 65.294,216.817 65.015,216.993 64.676 C 217.169 64.336,217.266 64.058,217.209 64.058 C 217.153 64.058,216.963 64.336,216.787 64.676 M244.181 66.323 C 244.357 66.663,244.547 66.941,244.604 66.941 C 244.660 66.941,244.563 66.663,244.387 66.323 C 244.211 65.984,244.021 65.705,243.965 65.705 C 243.908 65.705,244.006 65.984,244.181 66.323 M215.139 67.559 C 214.963 67.899,214.866 68.177,214.922 68.177 C 214.979 68.177,215.169 67.899,215.345 67.559 C 215.521 67.219,215.618 66.941,215.562 66.941 C 215.505 66.941,215.315 67.219,215.139 67.559 M245.211 68.177 C 245.387 68.517,245.577 68.795,245.634 68.795 C 245.690 68.795,245.593 68.517,245.417 68.177 C 245.241 67.837,245.051 67.559,244.995 67.559 C 244.938 67.559,245.035 67.837,245.211 68.177 M246.447 70.443 C 246.623 70.783,246.813 71.061,246.869 71.061 C 246.926 71.061,246.829 70.783,246.653 70.443 C 246.477 70.103,246.287 69.825,246.230 69.825 C 246.174 69.825,246.271 70.103,246.447 70.443 M215.551 72.915 C 215.727 73.254,215.917 73.532,215.974 73.532 C 216.030 73.532,215.933 73.254,215.757 72.915 C 215.581 72.575,215.391 72.297,215.334 72.297 C 215.278 72.297,215.375 72.575,215.551 72.915 M249.125 75.180 C 249.300 75.520,249.490 75.798,249.547 75.798 C 249.604 75.798,249.506 75.520,249.331 75.180 C 249.155 74.840,248.965 74.562,248.908 74.562 C 248.851 74.562,248.949 74.840,249.125 75.180 M217.817 77.034 C 217.992 77.374,218.183 77.652,218.239 77.652 C 218.296 77.652,218.198 77.374,218.023 77.034 C 217.847 76.694,217.657 76.416,217.600 76.416 C 217.543 76.416,217.641 76.694,217.817 77.034 M250.154 77.034 C 250.330 77.374,250.520 77.652,250.577 77.652 C 250.634 77.652,250.536 77.374,250.360 77.034 C 250.185 76.694,249.995 76.416,249.938 76.416 C 249.881 76.416,249.979 76.694,250.154 77.034 M219.464 79.918 C 219.640 80.257,219.830 80.536,219.887 80.536 C 219.944 80.536,219.846 80.257,219.670 79.918 C 219.495 79.578,219.305 79.300,219.248 79.300 C 219.191 79.300,219.289 79.578,219.464 79.918 M220.494 81.771 C 220.670 82.111,220.860 82.389,220.917 82.389 C 220.974 82.389,220.876 82.111,220.700 81.771 C 220.525 81.432,220.334 81.153,220.278 81.153 C 220.221 81.153,220.319 81.432,220.494 81.771 M221.524 83.625 C 221.700 83.965,221.890 84.243,221.947 84.243 C 222.003 84.243,221.906 83.965,221.730 83.625 C 221.554 83.285,221.364 83.007,221.308 83.007 C 221.251 83.007,221.348 83.285,221.524 83.625 M255.098 85.891 C 255.274 86.231,255.464 86.509,255.520 86.509 C 255.577 86.509,255.480 86.231,255.304 85.891 C 255.128 85.551,254.938 85.273,254.881 85.273 C 254.825 85.273,254.922 85.551,255.098 85.891 M256.327 88.054 C 256.644 88.620,256.999 89.176,257.116 89.289 C 257.233 89.403,257.069 89.032,256.752 88.465 C 256.435 87.899,256.080 87.343,255.963 87.230 C 255.847 87.116,256.010 87.487,256.327 88.054 M224.202 88.363 C 224.378 88.702,224.568 88.980,224.624 88.980 C 224.681 88.980,224.584 88.702,224.408 88.363 C 224.232 88.023,224.042 87.745,223.985 87.745 C 223.929 87.745,224.026 88.023,224.202 88.363 M225.438 90.628 C 225.613 90.968,225.804 91.246,225.860 91.246 C 225.917 91.246,225.819 90.968,225.644 90.628 C 225.468 90.288,225.278 90.010,225.221 90.010 C 225.164 90.010,225.262 90.288,225.438 90.628 M257.775 90.628 C 257.951 90.968,258.141 91.246,258.198 91.246 C 258.255 91.246,258.157 90.968,257.981 90.628 C 257.806 90.288,257.616 90.010,257.559 90.010 C 257.502 90.010,257.600 90.288,257.775 90.628 M226.468 92.482 C 226.643 92.822,226.833 93.100,226.890 93.100 C 226.947 93.100,226.849 92.822,226.674 92.482 C 226.498 92.142,226.308 91.864,226.251 91.864 C 226.194 91.864,226.292 92.142,226.468 92.482 M260.041 94.748 C 260.217 95.088,260.407 95.366,260.464 95.366 C 260.520 95.366,260.423 95.088,260.247 94.748 C 260.071 94.408,259.881 94.130,259.825 94.130 C 259.768 94.130,259.865 94.408,260.041 94.748 M229.145 97.219 C 229.321 97.559,229.511 97.837,229.568 97.837 C 229.624 97.837,229.527 97.559,229.351 97.219 C 229.175 96.880,228.985 96.601,228.929 96.601 C 228.872 96.601,228.969 96.880,229.145 97.219 M230.381 99.485 C 230.557 99.825,230.747 100.103,230.804 100.103 C 230.860 100.103,230.763 99.825,230.587 99.485 C 230.411 99.145,230.221 98.867,230.164 98.867 C 230.108 98.867,230.205 99.145,230.381 99.485 M262.719 99.485 C 262.895 99.825,263.085 100.103,263.141 100.103 C 263.198 100.103,263.101 99.825,262.925 99.485 C 262.749 99.145,262.559 98.867,262.502 98.867 C 262.446 98.867,262.543 99.145,262.719 99.485 M231.411 101.339 C 231.587 101.679,231.777 101.957,231.833 101.957 C 231.890 101.957,231.793 101.679,231.617 101.339 C 231.441 100.999,231.251 100.721,231.194 100.721 C 231.138 100.721,231.235 100.999,231.411 101.339 M264.985 103.605 C 265.160 103.944,265.350 104.222,265.407 104.222 C 265.464 104.222,265.366 103.944,265.191 103.605 C 265.015 103.265,264.825 102.987,264.768 102.987 C 264.711 102.987,264.809 103.265,264.985 103.605 M233.059 104.222 C 233.234 104.562,233.425 104.840,233.481 104.840 C 233.538 104.840,233.440 104.562,233.265 104.222 C 233.089 103.883,232.899 103.605,232.842 103.605 C 232.786 103.605,232.883 103.883,233.059 104.222 M234.089 106.076 C 234.264 106.416,234.454 106.694,234.511 106.694 C 234.568 106.694,234.470 106.416,234.295 106.076 C 234.119 105.736,233.929 105.458,233.872 105.458 C 233.815 105.458,233.913 105.736,234.089 106.076 M267.662 108.342 C 267.838 108.682,268.028 108.960,268.085 108.960 C 268.141 108.960,268.044 108.682,267.868 108.342 C 267.692 108.002,267.502 107.724,267.446 107.724 C 267.389 107.724,267.486 108.002,267.662 108.342 M268.692 110.196 C 268.868 110.536,269.058 110.814,269.115 110.814 C 269.171 110.814,269.074 110.536,268.898 110.196 C 268.722 109.856,268.532 109.578,268.476 109.578 C 268.419 109.578,268.516 109.856,268.692 110.196 M238.002 113.079 C 238.178 113.419,238.368 113.697,238.425 113.697 C 238.481 113.697,238.384 113.419,238.208 113.079 C 238.032 112.739,237.842 112.461,237.786 112.461 C 237.729 112.461,237.826 112.739,238.002 113.079 M255.098 114.521 L 239.032 114.628 255.034 114.677 C 265.534 114.710,271.080 114.656,271.164 114.521 C 271.234 114.408,271.262 114.337,271.227 114.365 C 271.192 114.392,263.934 114.462,255.098 114.521 M287.020 145.829 C 287.020 157.101,287.045 161.712,287.075 156.076 C 287.106 150.440,287.106 141.218,287.075 135.582 C 287.045 129.946,287.020 134.557,287.020 145.829 M241.088 145.932 C 241.088 157.147,241.113 161.705,241.143 156.061 C 241.174 150.416,241.174 141.240,241.143 135.669 C 241.113 130.099,241.088 134.717,241.088 145.932 M179.815 149.743 L 172.709 149.854 179.751 149.901 C 184.276 149.932,186.839 149.875,186.921 149.743 C 186.991 149.629,187.019 149.558,186.984 149.584 C 186.949 149.610,183.723 149.681,179.815 149.743 M139.808 150.716 C 140.178 150.762,140.734 150.761,141.044 150.714 C 141.353 150.667,141.050 150.629,140.371 150.630 C 139.691 150.631,139.438 150.670,139.808 150.716 M205.355 154.956 C 205.355 154.992,205.657 155.293,206.025 155.626 L 206.694 156.231 206.089 155.561 C 205.525 154.937,205.355 154.797,205.355 154.956 M99.743 158.548 C 101.867 158.581,105.342 158.581,107.467 158.548 C 109.591 158.514,107.853 158.487,103.605 158.487 C 99.356 158.487,97.618 158.514,99.743 158.548 M315.551 158.541 C 322.611 158.685,328.480 158.689,328.393 158.548 C 328.340 158.463,324.804 158.414,320.534 158.439 C 316.264 158.463,314.022 158.509,315.551 158.541 M228.207 161.226 L 227.497 161.998 228.270 161.288 C 228.989 160.627,229.137 160.453,228.980 160.453 C 228.945 160.453,228.598 160.801,228.207 161.226 " stroke="none" fill="#51659f" fill-rule="evenodd"></path><path id="path6" d="M294.707 44.765 C 293.613 46.710,291.542 50.386,290.105 52.935 C 288.668 55.484,286.564 59.238,285.428 61.277 C 284.293 63.316,282.774 66.021,282.053 67.287 C 280.766 69.546,280.554 70.165,280.929 70.556 C 281.033 70.664,281.990 72.327,283.058 74.253 C 285.691 79.005,288.580 84.182,291.967 90.216 C 293.525 92.992,295.704 96.885,296.810 98.867 C 299.645 103.949,303.358 110.594,304.550 112.718 L 305.561 114.520 321.679 114.520 C 330.543 114.521,337.796 114.471,337.796 114.409 C 337.796 114.347,337.207 113.258,336.486 111.989 C 335.766 110.719,334.247 108.012,333.111 105.973 C 330.473 101.237,326.884 94.816,324.305 90.216 C 322.007 86.116,318.176 79.267,315.551 74.562 C 313.919 71.637,311.997 68.204,306.789 58.908 C 305.741 57.039,304.126 54.166,303.199 52.523 C 302.272 50.881,300.494 47.707,299.247 45.470 C 298.000 43.234,296.916 41.365,296.838 41.317 C 296.760 41.269,295.801 42.820,294.707 44.765 M66.066 124.765 C 66.547 124.808,67.335 124.808,67.817 124.765 C 68.298 124.721,67.904 124.686,66.941 124.686 C 65.978 124.686,65.584 124.721,66.066 124.765 M64.109 124.962 C 64.307 125.014,64.632 125.014,64.830 124.962 C 65.028 124.910,64.866 124.868,64.470 124.868 C 64.073 124.868,63.911 124.910,64.109 124.962 M69.053 124.962 C 69.251 125.014,69.575 125.014,69.773 124.962 C 69.972 124.910,69.809 124.868,69.413 124.868 C 69.016 124.868,68.854 124.910,69.053 124.962 M212.109 124.972 C 212.821 125.013,213.934 125.012,214.581 124.972 C 215.228 124.931,214.645 124.898,213.285 124.898 C 211.926 124.899,211.397 124.932,212.109 124.972 M99.816 125.558 C 99.618 126.074,99.669 126.163,99.949 125.789 C 100.169 125.494,100.715 125.435,103.708 125.384 L 107.209 125.324 103.575 125.278 C 100.424 125.238,99.924 125.275,99.816 125.558 M129.858 125.489 C 129.804 125.631,129.784 134.923,129.814 146.138 L 129.868 166.529 129.919 145.986 L 129.969 125.443 137.848 125.386 L 145.726 125.330 137.841 125.281 C 131.686 125.242,129.935 125.288,129.858 125.489 M163.638 125.487 C 163.584 125.630,163.564 134.923,163.594 146.138 L 163.648 166.529 163.698 145.984 L 163.749 125.438 175.283 125.438 L 186.818 125.438 186.818 129.349 L 186.818 133.259 179.712 133.318 L 172.605 133.376 179.763 133.372 L 186.921 133.368 186.921 129.351 L 186.921 125.335 175.329 125.281 C 166.165 125.239,163.716 125.283,163.638 125.487 M245.504 125.386 C 248.600 125.428,250.013 125.522,250.241 125.699 C 250.528 125.923,250.533 125.910,250.284 125.592 C 250.028 125.266,249.578 125.236,245.546 125.279 L 241.092 125.326 245.504 125.386 M268.583 138.153 C 268.576 150.893,268.570 151.074,268.185 150.566 C 267.471 149.626,267.115 149.224,267.272 149.537 C 267.564 150.119,268.432 151.184,268.614 151.184 C 268.716 151.184,268.795 145.600,268.795 138.311 L 268.795 125.438 273.119 125.438 L 277.444 125.438 277.498 145.881 L 277.552 166.323 277.550 145.829 L 277.549 125.335 273.069 125.279 L 268.589 125.224 268.583 138.153 M291.503 125.384 L 295.982 125.446 296.036 145.885 L 296.089 166.323 296.088 145.829 L 296.087 125.335 291.555 125.328 L 287.024 125.322 291.503 125.384 M316.924 125.369 C 316.849 125.445,316.788 125.607,316.790 125.729 C 316.792 125.855,316.867 125.836,316.963 125.685 C 317.093 125.480,317.938 125.432,320.648 125.480 C 322.581 125.513,324.120 125.471,324.067 125.386 C 323.949 125.195,317.114 125.179,316.924 125.369 M60.299 126.070 C 59.874 126.294,59.526 126.523,59.526 126.580 C 59.526 126.671,61.153 125.911,61.363 125.721 C 61.600 125.507,60.981 125.709,60.299 126.070 M73.299 125.961 C 73.680 126.126,74.051 126.258,74.123 126.254 C 74.390 126.239,73.211 125.658,72.915 125.659 C 72.745 125.659,72.917 125.795,73.299 125.961 M148.696 126.070 C 149.310 126.288,149.848 126.431,149.892 126.387 C 149.988 126.291,148.112 125.638,147.801 125.659 C 147.679 125.667,148.082 125.852,148.696 126.070 M206.282 125.945 C 205.487 126.309,205.857 126.315,206.797 125.953 C 207.194 125.800,207.379 125.672,207.209 125.669 C 207.039 125.665,206.622 125.790,206.282 125.945 M324.422 126.309 C 324.399 126.553,325.070 128.140,325.159 128.051 C 325.204 128.006,325.060 127.562,324.839 127.064 C 324.618 126.566,324.430 126.226,324.422 126.309 M58.559 127.203 L 57.981 127.733 58.651 127.268 C 59.019 127.012,59.320 126.773,59.320 126.738 C 59.320 126.575,59.092 126.715,58.559 127.203 M75.489 126.986 C 75.716 127.171,76.087 127.413,76.313 127.524 L 76.725 127.726 76.313 127.391 C 76.087 127.206,75.716 126.964,75.489 126.853 L 75.077 126.651 75.489 126.986 M203.862 126.997 C 203.063 127.431,203.154 127.580,203.965 127.168 C 204.741 126.773,204.879 126.670,204.617 126.682 C 204.513 126.686,204.174 126.828,203.862 126.997 M222.880 126.947 C 223.230 127.221,224.511 127.922,224.511 127.840 C 224.511 127.707,223.174 126.880,222.959 126.880 C 222.868 126.880,222.833 126.910,222.880 126.947 M251.269 127.257 C 251.380 127.464,251.633 127.766,251.830 127.926 C 252.053 128.107,252.003 127.963,251.700 127.549 C 251.159 126.810,250.956 126.673,251.269 127.257 M57.136 128.373 C 56.504 129.057,55.766 130.032,56.160 129.660 C 56.600 129.245,57.924 127.703,57.840 127.703 C 57.792 127.703,57.475 128.005,57.136 128.373 M76.902 127.862 C 77.065 128.126,78.270 129.018,78.270 128.875 C 78.270 128.824,77.930 128.523,77.514 128.205 C 77.098 127.888,76.823 127.734,76.902 127.862 M98.684 128.344 C 98.557 128.708,98.489 129.042,98.533 129.086 C 98.577 129.130,98.717 128.868,98.844 128.504 C 98.971 128.140,99.039 127.807,98.995 127.762 C 98.951 127.718,98.811 127.980,98.684 128.344 M152.714 128.268 C 153.046 128.635,153.362 128.890,153.418 128.834 C 153.473 128.779,153.480 128.710,153.433 128.682 C 153.386 128.653,153.069 128.399,152.729 128.116 L 152.111 127.602 152.714 128.268 M201.339 128.648 L 200.721 129.179 201.390 128.736 C 201.758 128.493,202.060 128.253,202.060 128.204 C 202.060 128.050,201.973 128.104,201.339 128.648 M108.357 128.836 C 108.357 128.950,108.489 129.274,108.651 129.557 C 108.813 129.840,108.945 129.979,108.945 129.866 C 108.945 129.753,108.813 129.428,108.651 129.145 C 108.489 128.862,108.357 128.723,108.357 128.836 M252.935 129.557 C 253.177 129.897,253.421 130.175,253.478 130.175 C 253.535 130.175,253.383 129.897,253.141 129.557 C 252.899 129.217,252.655 128.939,252.598 128.939 C 252.541 128.939,252.693 129.217,252.935 129.557 M199.681 130.021 L 198.867 130.896 199.743 130.082 C 200.557 129.325,200.713 129.145,200.557 129.145 C 200.523 129.145,200.129 129.539,199.681 130.021 M228.111 130.752 C 229.014 131.681,229.791 132.441,229.837 132.441 C 229.990 132.441,228.330 130.698,227.394 129.877 C 226.885 129.429,227.207 129.823,228.111 130.752 M77.129 130.433 L 76.107 131.514 77.188 130.492 C 77.783 129.930,78.270 129.443,78.270 129.410 C 78.270 129.257,78.079 129.428,77.129 130.433 M154.379 130.072 C 155.204 131.219,155.433 131.431,154.973 130.625 C 154.758 130.249,154.404 129.785,154.184 129.595 C 153.953 129.393,154.034 129.593,154.379 130.072 M325.667 129.454 C 325.671 129.567,325.853 130.031,326.070 130.484 C 326.288 130.937,326.409 131.076,326.338 130.793 C 326.193 130.210,325.656 129.139,325.667 129.454 M253.965 130.999 C 254.207 131.339,254.451 131.617,254.508 131.617 C 254.565 131.617,254.413 131.339,254.171 130.999 C 253.929 130.659,253.685 130.381,253.628 130.381 C 253.571 130.381,253.723 130.659,253.965 130.999 M55.088 131.224 C 54.907 131.574,54.795 131.898,54.840 131.942 C 54.884 131.987,55.075 131.700,55.264 131.305 C 55.687 130.417,55.540 130.349,55.088 131.224 M97.448 131.434 C 97.321 131.798,97.254 132.132,97.298 132.176 C 97.342 132.220,97.482 131.958,97.608 131.594 C 97.735 131.230,97.803 130.896,97.759 130.852 C 97.715 130.808,97.575 131.070,97.448 131.434 M197.929 131.771 L 197.219 132.544 197.992 131.834 C 198.711 131.173,198.859 130.999,198.702 130.999 C 198.667 130.999,198.320 131.347,197.929 131.771 M74.974 132.750 C 74.474 133.260,74.111 133.677,74.168 133.677 C 74.224 133.677,74.680 133.260,75.180 132.750 C 75.681 132.240,76.044 131.823,75.987 131.823 C 75.930 131.823,75.475 132.240,74.974 132.750 M155.527 131.823 C 155.518 131.880,155.691 132.389,155.912 132.956 C 156.133 133.522,156.316 133.847,156.319 133.677 C 156.323 133.385,155.562 131.604,155.527 131.823 M254.995 132.441 C 255.237 132.781,255.481 133.059,255.538 133.059 C 255.594 133.059,255.443 132.781,255.201 132.441 C 254.959 132.101,254.714 131.823,254.658 131.823 C 254.601 131.823,254.753 132.101,254.995 132.441 M139.907 132.797 C 140.332 132.841,141.027 132.841,141.452 132.797 C 141.877 132.752,141.529 132.716,140.680 132.716 C 139.830 132.716,139.482 132.752,139.907 132.797 M138.717 138.002 L 138.723 143.254 140.371 143.267 L 142.019 143.279 140.426 143.207 L 138.833 143.135 138.772 137.942 L 138.712 132.750 138.717 138.002 M230.484 133.471 C 230.726 133.811,230.970 134.089,231.027 134.089 C 231.084 134.089,230.932 133.811,230.690 133.471 C 230.448 133.131,230.204 132.853,230.147 132.853 C 230.090 132.853,230.242 133.131,230.484 133.471 M64.047 133.831 L 63.337 134.604 64.109 133.894 C 64.828 133.233,64.976 133.059,64.819 133.059 C 64.785 133.059,64.437 133.406,64.047 133.831 M69.178 133.475 C 69.672 133.699,70.135 133.879,70.208 133.874 C 70.468 133.857,68.892 133.076,68.589 133.072 C 68.419 133.070,68.684 133.251,69.178 133.475 M211.535 133.269 C 211.120 133.359,211.557 133.379,212.564 133.317 C 213.527 133.257,214.354 133.174,214.401 133.133 C 214.554 133.000,212.277 133.108,211.535 133.269 M214.641 133.339 C 214.688 133.379,215.191 133.466,215.757 133.532 C 216.420 133.608,216.640 133.587,216.375 133.472 C 215.981 133.302,214.463 133.185,214.641 133.339 M73.416 134.552 L 72.812 135.221 73.481 134.616 C 74.105 134.053,74.245 133.883,74.086 133.883 C 74.050 133.883,73.749 134.184,73.416 134.552 M96.212 134.523 C 96.085 134.887,96.018 135.221,96.062 135.265 C 96.106 135.309,96.246 135.048,96.373 134.684 C 96.499 134.320,96.567 133.986,96.523 133.942 C 96.479 133.898,96.339 134.159,96.212 134.523 M145.417 133.947 C 145.417 133.982,145.718 134.284,146.087 134.616 L 146.756 135.221 146.151 134.552 C 145.587 133.928,145.417 133.788,145.417 133.947 M70.855 134.181 C 70.855 134.238,71.133 134.428,71.473 134.604 C 71.813 134.779,72.091 134.877,72.091 134.820 C 72.091 134.763,71.813 134.573,71.473 134.398 C 71.133 134.222,70.855 134.124,70.855 134.181 M218.143 134.154 C 218.470 134.405,219.773 135.086,219.773 135.005 C 219.773 134.868,218.477 134.090,218.246 134.089 C 218.142 134.089,218.096 134.118,218.143 134.154 M54.017 135.015 C 54.019 135.469,54.061 135.630,54.111 135.373 C 54.160 135.117,54.158 134.747,54.107 134.550 C 54.055 134.353,54.015 134.562,54.017 135.015 M207.621 134.725 C 207.279 135.005,207.244 135.075,207.518 134.933 C 208.190 134.586,208.562 134.301,208.342 134.302 C 208.229 134.303,207.904 134.493,207.621 134.725 M110.828 134.754 C 110.805 134.998,111.476 136.585,111.565 136.496 C 111.609 136.451,111.465 136.007,111.244 135.509 C 111.023 135.011,110.836 134.671,110.828 134.754 M220.672 135.757 C 221.005 136.051,221.551 136.607,221.884 136.992 C 222.425 137.617,222.446 137.626,222.079 137.075 C 221.668 136.459,220.983 135.789,220.383 135.418 C 220.209 135.310,220.339 135.462,220.672 135.757 M205.861 136.200 L 205.046 137.075 205.922 136.261 C 206.736 135.504,206.892 135.324,206.736 135.324 C 206.702 135.324,206.308 135.718,205.861 136.200 M257.673 136.148 C 257.915 136.488,258.159 136.766,258.215 136.766 C 258.272 136.766,258.120 136.488,257.878 136.148 C 257.636 135.808,257.392 135.530,257.335 135.530 C 257.279 135.530,257.431 135.808,257.673 136.148 M156.610 137.281 C 156.611 138.187,156.647 138.533,156.691 138.048 C 156.734 137.564,156.734 136.822,156.689 136.400 C 156.645 135.978,156.610 136.375,156.610 137.281 M53.821 136.972 C 53.821 137.595,53.859 137.850,53.907 137.539 C 53.954 137.227,53.954 136.717,53.907 136.406 C 53.859 136.094,53.821 136.349,53.821 136.972 M328.336 136.045 C 328.336 136.159,328.468 136.483,328.630 136.766 C 328.792 137.049,328.925 137.188,328.925 137.075 C 328.925 136.962,328.792 136.637,328.630 136.354 C 328.468 136.071,328.336 135.932,328.336 136.045 M147.218 137.384 C 147.278 138.120,147.360 138.762,147.402 138.809 C 147.554 138.982,147.442 136.856,147.279 136.457 C 147.179 136.215,147.154 136.598,147.218 137.384 M94.977 137.613 C 94.850 137.977,94.782 138.311,94.826 138.355 C 94.870 138.399,95.010 138.137,95.137 137.773 C 95.264 137.409,95.331 137.075,95.287 137.031 C 95.243 136.987,95.103 137.249,94.977 137.613 M232.662 137.384 C 232.738 137.667,232.885 138.038,232.990 138.208 C 233.123 138.423,233.139 138.360,233.044 138.002 C 232.968 137.719,232.820 137.348,232.715 137.178 C 232.582 136.963,232.566 137.026,232.662 137.384 M259.114 138.208 C 259.356 138.548,259.601 138.826,259.657 138.826 C 259.714 138.826,259.562 138.548,259.320 138.208 C 259.078 137.868,258.834 137.590,258.777 137.590 C 258.721 137.590,258.872 137.868,259.114 138.208 M112.073 137.899 C 112.077 138.012,112.258 138.476,112.476 138.929 C 112.694 139.382,112.815 139.521,112.744 139.238 C 112.599 138.655,112.062 137.584,112.073 137.899 M54.013 138.826 C 54.013 139.222,54.055 139.385,54.107 139.186 C 54.159 138.988,54.159 138.664,54.107 138.465 C 54.055 138.267,54.013 138.429,54.013 138.826 M146.823 139.865 C 146.633 140.313,146.515 140.680,146.560 140.680 C 146.711 140.680,147.297 139.419,147.232 139.233 C 147.197 139.133,147.013 139.417,146.823 139.865 M260.144 139.650 C 260.386 139.990,260.631 140.268,260.687 140.268 C 260.744 140.268,260.592 139.990,260.350 139.650 C 260.108 139.310,259.864 139.032,259.807 139.032 C 259.751 139.032,259.902 139.310,260.144 139.650 M103.287 139.458 C 103.212 139.578,103.207 139.733,103.275 139.801 C 103.343 139.869,103.402 139.793,103.407 139.633 C 103.412 139.472,103.603 139.665,103.832 140.062 C 104.061 140.458,104.185 140.597,104.109 140.371 C 104.032 140.144,103.923 139.797,103.866 139.598 C 103.749 139.192,103.490 139.129,103.287 139.458 M320.372 139.476 C 320.287 139.612,320.315 139.658,320.436 139.583 C 320.555 139.509,320.804 139.862,321.005 140.387 C 321.201 140.902,321.401 141.284,321.448 141.236 C 321.550 141.135,320.761 139.238,320.617 139.238 C 320.563 139.238,320.453 139.345,320.372 139.476 M203.123 140.380 C 202.991 140.669,202.887 141.017,202.892 141.153 C 202.896 141.289,203.037 141.085,203.204 140.700 C 203.556 139.889,203.481 139.593,203.123 140.380 M93.741 140.703 C 93.614 141.067,93.546 141.400,93.590 141.445 C 93.634 141.489,93.774 141.227,93.901 140.863 C 94.028 140.499,94.096 140.165,94.052 140.121 C 94.007 140.077,93.868 140.339,93.741 140.703 M193.223 141.088 C 193.099 141.667,193.005 142.392,193.015 142.698 C 193.026 143.004,193.159 142.562,193.313 141.715 C 193.630 139.959,193.564 139.497,193.223 141.088 M250.101 153.399 L 250.151 166.529 250.206 153.581 C 250.257 141.565,250.285 140.652,250.601 140.913 C 250.912 141.170,250.917 141.155,250.653 140.731 C 250.494 140.476,250.294 140.268,250.208 140.268 C 250.122 140.268,250.074 146.177,250.101 153.399 M261.388 141.381 C 261.775 141.920,262.181 142.416,262.290 142.484 C 262.398 142.551,262.171 142.165,261.784 141.626 C 261.397 141.087,260.991 140.591,260.882 140.524 C 260.774 140.457,261.001 140.843,261.388 141.381 M155.863 141.754 C 155.675 142.340,155.556 142.854,155.598 142.896 C 155.640 142.938,155.832 142.497,156.025 141.916 C 156.218 141.334,156.337 140.820,156.290 140.773 C 156.243 140.726,156.050 141.167,155.863 141.754 M145.417 141.748 C 144.907 142.212,144.676 142.495,144.902 142.375 C 145.290 142.170,146.628 140.876,146.434 140.894 C 146.384 140.899,145.927 141.283,145.417 141.748 M224.134 141.092 C 224.144 141.627,224.469 142.506,224.476 142.019 C 224.479 141.792,224.402 141.421,224.305 141.195 C 224.196 140.942,224.130 140.902,224.134 141.092 M102.402 141.615 C 102.057 142.373,102.123 142.534,102.496 141.846 C 102.670 141.524,102.774 141.223,102.727 141.176 C 102.680 141.128,102.534 141.326,102.402 141.615 M251.287 141.916 C 251.529 142.255,251.774 142.533,251.830 142.533 C 251.887 142.533,251.735 142.255,251.493 141.916 C 251.251 141.576,251.007 141.298,250.950 141.298 C 250.894 141.298,251.045 141.576,251.287 141.916 M54.789 141.580 C 54.789 141.803,55.607 143.357,55.724 143.357 C 55.781 143.357,55.628 142.963,55.386 142.482 C 54.908 141.535,54.789 141.355,54.789 141.580 M68.610 141.594 C 68.782 141.765,70.649 142.518,70.649 142.416 C 70.649 142.359,70.224 142.131,69.705 141.908 C 68.784 141.514,68.428 141.411,68.610 141.594 M179.669 141.657 L 186.835 141.715 186.775 145.719 C 186.742 147.921,186.786 149.651,186.874 149.563 C 186.961 149.475,187.008 147.649,186.977 145.505 L 186.921 141.607 179.712 141.602 L 172.503 141.598 179.669 141.657 M104.649 142.019 C 104.649 142.132,104.781 142.456,104.943 142.739 C 105.105 143.023,105.238 143.162,105.238 143.048 C 105.238 142.935,105.105 142.611,104.943 142.327 C 104.781 142.044,104.649 141.905,104.649 142.019 M234.038 142.636 C 234.040 143.090,234.082 143.251,234.131 142.995 C 234.181 142.738,234.179 142.368,234.127 142.171 C 234.076 141.974,234.035 142.183,234.038 142.636 M330.911 142.327 C 330.987 142.611,331.135 142.981,331.240 143.151 C 331.372 143.366,331.389 143.303,331.293 142.945 C 331.217 142.662,331.069 142.291,330.964 142.122 C 330.832 141.907,330.815 141.970,330.911 142.327 M321.960 142.636 C 321.964 142.750,322.145 143.213,322.363 143.666 C 322.581 144.119,322.701 144.258,322.631 143.975 C 322.486 143.392,321.949 142.321,321.960 142.636 M71.473 142.834 C 71.473 142.891,71.843 143.126,72.297 143.357 C 72.750 143.589,73.120 143.731,73.120 143.675 C 73.120 143.618,72.750 143.383,72.297 143.151 C 71.843 142.920,71.473 142.777,71.473 142.834 M252.317 143.357 C 252.559 143.697,252.804 143.975,252.860 143.975 C 252.917 143.975,252.765 143.697,252.523 143.357 C 252.281 143.018,252.037 142.739,251.980 142.739 C 251.924 142.739,252.075 143.018,252.317 143.357 M318.572 143.804 C 318.386 144.278,318.267 144.700,318.308 144.741 C 318.349 144.783,318.538 144.430,318.726 143.958 C 318.915 143.486,319.034 143.064,318.990 143.020 C 318.947 142.977,318.758 143.329,318.572 143.804 M92.505 143.792 C 92.378 144.156,92.310 144.490,92.354 144.534 C 92.398 144.578,92.538 144.316,92.665 143.952 C 92.792 143.588,92.860 143.255,92.816 143.210 C 92.772 143.166,92.632 143.428,92.505 143.792 M192.871 145.932 C 192.871 147.405,192.904 147.980,192.944 147.211 C 192.984 146.441,192.983 145.236,192.943 144.533 C 192.903 143.830,192.871 144.459,192.871 145.932 M202.318 144.284 C 202.320 144.737,202.362 144.899,202.411 144.642 C 202.461 144.386,202.459 144.015,202.407 143.818 C 202.356 143.621,202.315 143.831,202.318 144.284 M234.270 145.932 C 234.271 147.291,234.304 147.821,234.344 147.108 C 234.385 146.396,234.384 145.284,234.344 144.637 C 234.303 143.990,234.270 144.573,234.270 145.932 M56.432 144.381 C 56.672 144.717,56.973 145.058,57.102 145.137 C 57.230 145.217,57.076 144.941,56.759 144.525 C 56.070 143.623,55.811 143.508,56.432 144.381 M114.536 143.817 C 114.512 144.060,115.183 145.648,115.272 145.559 C 115.317 145.514,115.173 145.070,114.952 144.572 C 114.731 144.074,114.544 143.734,114.536 143.817 M224.769 144.902 C 224.771 145.355,224.813 145.516,224.862 145.260 C 224.912 145.004,224.910 144.633,224.858 144.436 C 224.807 144.239,224.766 144.449,224.769 144.902 M263.852 144.799 C 264.094 145.139,264.338 145.417,264.395 145.417 C 264.451 145.417,264.300 145.139,264.058 144.799 C 263.816 144.459,263.571 144.181,263.515 144.181 C 263.458 144.181,263.610 144.459,263.852 144.799 M76.116 146.018 C 76.687 146.650,77.367 147.515,77.626 147.940 C 78.199 148.879,78.442 148.975,77.921 148.057 C 77.716 147.696,76.993 146.831,76.313 146.134 C 75.168 144.961,75.153 144.952,76.116 146.018 M253.759 145.417 C 254.001 145.757,254.245 146.035,254.302 146.035 C 254.359 146.035,254.207 145.757,253.965 145.417 C 253.723 145.077,253.479 144.799,253.422 144.799 C 253.365 144.799,253.517 145.077,253.759 145.417 M332.043 145.108 C 332.043 145.221,332.176 145.546,332.338 145.829 C 332.500 146.112,332.632 146.251,332.632 146.138 C 332.632 146.025,332.500 145.700,332.338 145.417 C 332.176 145.134,332.043 144.995,332.043 145.108 M153.038 146.550 C 152.538 147.060,152.175 147.477,152.231 147.477 C 152.288 147.477,152.744 147.060,153.244 146.550 C 153.744 146.040,154.107 145.623,154.051 145.623 C 153.994 145.623,153.538 146.040,153.038 146.550 M308.571 146.264 C 308.444 146.628,308.376 146.962,308.420 147.006 C 308.464 147.050,308.604 146.788,308.731 146.424 C 308.858 146.060,308.926 145.726,308.882 145.682 C 308.838 145.638,308.698 145.900,308.571 146.264 M91.269 146.882 C 91.142 147.246,91.074 147.580,91.118 147.624 C 91.162 147.668,91.302 147.406,91.429 147.042 C 91.556 146.678,91.624 146.344,91.580 146.300 C 91.536 146.256,91.396 146.518,91.269 146.882 M224.769 147.168 C 224.771 147.621,224.813 147.782,224.862 147.526 C 224.912 147.270,224.910 146.899,224.858 146.702 C 224.807 146.505,224.766 146.715,224.769 147.168 M99.920 147.912 C 99.793 148.276,99.725 148.610,99.769 148.654 C 99.813 148.698,99.953 148.436,100.080 148.072 C 100.207 147.708,100.275 147.374,100.231 147.330 C 100.187 147.286,100.047 147.548,99.920 147.912 M333.073 147.524 C 333.050 147.768,333.721 149.355,333.810 149.266 C 333.855 149.221,333.710 148.777,333.490 148.279 C 333.269 147.781,333.081 147.441,333.073 147.524 M266.323 148.301 C 266.565 148.641,266.810 148.919,266.866 148.919 C 266.923 148.919,266.771 148.641,266.529 148.301 C 266.287 147.961,266.043 147.683,265.986 147.683 C 265.930 147.683,266.081 147.961,266.323 148.301 M107.121 147.936 C 107.097 148.180,107.768 149.767,107.857 149.678 C 107.902 149.633,107.758 149.189,107.537 148.691 C 107.316 148.193,107.129 147.853,107.121 147.936 M234.038 149.228 C 234.040 149.681,234.082 149.842,234.131 149.586 C 234.181 149.329,234.179 148.959,234.127 148.762 C 234.076 148.565,234.035 148.774,234.038 149.228 M193.017 149.348 C 193.029 149.735,193.115 150.283,193.210 150.566 C 193.321 150.899,193.340 150.680,193.264 149.949 C 193.130 148.653,192.987 148.304,193.017 149.348 M307.335 149.353 C 307.208 149.717,307.140 150.051,307.184 150.095 C 307.228 150.139,307.368 149.878,307.495 149.514 C 307.622 149.150,307.690 148.816,307.646 148.772 C 307.602 148.728,307.462 148.989,307.335 149.353 M78.287 148.919 C 78.278 148.975,78.451 149.485,78.672 150.051 C 78.893 150.618,79.076 150.942,79.079 150.772 C 79.083 150.481,78.322 148.700,78.287 148.919 M148.198 149.441 C 147.683 149.689,147.666 149.717,148.095 149.613 C 148.678 149.470,149.334 149.136,149.022 149.140 C 148.908 149.142,148.538 149.277,148.198 149.441 M324.628 149.228 C 324.628 149.341,324.761 149.665,324.923 149.949 C 325.085 150.232,325.217 150.371,325.217 150.257 C 325.217 150.144,325.085 149.820,324.923 149.537 C 324.761 149.253,324.628 149.114,324.628 149.228 M90.033 149.971 C 89.906 150.335,89.839 150.669,89.883 150.713 C 89.927 150.757,90.066 150.496,90.193 150.132 C 90.320 149.768,90.388 149.434,90.344 149.390 C 90.300 149.346,90.160 149.607,90.033 149.971 M224.140 150.505 C 223.835 151.498,223.983 151.645,224.305 150.669 C 224.441 150.258,224.512 149.881,224.463 149.832 C 224.414 149.783,224.269 150.086,224.140 150.505 M316.066 150.153 C 315.995 150.378,315.994 150.656,316.065 150.771 C 316.215 151.013,325.232 151.066,325.232 150.824 C 325.232 150.739,323.182 150.696,320.676 150.729 L 316.120 150.788 316.252 150.265 C 316.406 149.649,316.255 149.557,316.066 150.153 M117.007 150.051 C 117.007 150.165,117.140 150.489,117.302 150.772 C 117.464 151.056,117.596 151.195,117.596 151.081 C 117.596 150.968,117.464 150.644,117.302 150.360 C 117.140 150.077,117.007 149.938,117.007 150.051 M202.796 150.566 C 202.871 150.850,203.019 151.220,203.124 151.390 C 203.257 151.605,203.273 151.542,203.178 151.184 C 203.102 150.901,202.954 150.530,202.849 150.360 C 202.716 150.146,202.700 150.209,202.796 150.566 M68.580 151.236 C 69.434 152.145,69.619 152.309,69.619 152.154 C 69.619 152.121,69.179 151.681,68.641 151.176 L 67.662 150.257 68.580 151.236 M98.920 150.566 C 99.012 150.905,107.835 151.155,108.163 150.828 C 108.251 150.741,106.272 150.696,103.766 150.729 C 100.230 150.775,99.168 150.729,99.023 150.523 C 98.880 150.320,98.855 150.330,98.920 150.566 M141.665 150.513 C 142.264 150.554,143.190 150.554,143.725 150.512 C 144.259 150.469,143.769 150.435,142.636 150.436 C 141.504 150.436,141.066 150.471,141.665 150.513 M138.871 158.445 C 138.896 162.778,138.942 165.072,138.973 163.543 C 139.118 156.482,139.121 150.566,138.980 150.566 C 138.895 150.566,138.846 154.112,138.871 158.445 M257.878 151.184 C 258.120 151.524,258.365 151.802,258.421 151.802 C 258.478 151.802,258.326 151.524,258.084 151.184 C 257.842 150.844,257.598 150.566,257.541 150.566 C 257.485 150.566,257.636 150.844,257.878 151.184 M334.318 150.669 C 334.322 150.783,334.503 151.246,334.721 151.699 C 334.939 152.152,335.060 152.291,334.989 152.008 C 334.844 151.425,334.307 150.354,334.318 150.669 M306.099 152.443 C 305.972 152.807,305.904 153.141,305.948 153.185 C 305.993 153.229,306.132 152.967,306.259 152.603 C 306.386 152.239,306.454 151.905,306.410 151.861 C 306.366 151.817,306.226 152.079,306.099 152.443 M258.908 152.626 C 259.150 152.966,259.395 153.244,259.451 153.244 C 259.508 153.244,259.356 152.966,259.114 152.626 C 258.872 152.286,258.628 152.008,258.571 152.008 C 258.515 152.008,258.666 152.286,258.908 152.626 M79.370 153.965 C 79.371 154.871,79.407 155.216,79.451 154.732 C 79.494 154.247,79.494 153.506,79.449 153.084 C 79.405 152.662,79.370 153.059,79.370 153.965 M88.797 153.061 C 88.670 153.425,88.603 153.759,88.647 153.803 C 88.691 153.847,88.831 153.585,88.958 153.221 C 89.084 152.857,89.152 152.523,89.108 152.479 C 89.064 152.435,88.924 152.697,88.797 153.061 M69.881 153.862 C 69.881 154.372,69.921 154.580,69.970 154.325 C 70.019 154.071,70.019 153.653,69.970 153.399 C 69.921 153.144,69.881 153.352,69.881 153.862 M204.245 153.618 C 204.459 153.994,204.814 154.458,205.033 154.648 C 205.265 154.850,205.183 154.650,204.838 154.171 C 204.013 153.024,203.785 152.812,204.245 153.618 M232.681 154.308 C 232.495 154.783,232.376 155.205,232.417 155.246 C 232.458 155.287,232.647 154.935,232.836 154.463 C 233.024 153.991,233.143 153.569,233.099 153.525 C 233.056 153.481,232.867 153.834,232.681 154.308 M57.657 154.634 L 57.158 155.201 57.725 154.700 L 58.293 154.200 58.961 154.803 L 59.629 155.407 59.024 154.737 C 58.292 153.927,58.281 153.926,57.657 154.634 M221.614 155.149 C 221.118 155.744,220.875 156.101,221.074 155.942 C 221.475 155.622,222.743 154.068,222.604 154.068 C 222.555 154.068,222.110 154.555,221.614 155.149 M260.350 154.686 C 260.592 155.026,260.836 155.304,260.893 155.304 C 260.950 155.304,260.798 155.026,260.556 154.686 C 260.314 154.346,260.070 154.068,260.013 154.068 C 259.957 154.068,260.108 154.346,260.350 154.686 M304.863 155.533 C 304.736 155.897,304.669 156.231,304.713 156.275 C 304.757 156.319,304.897 156.057,305.023 155.693 C 305.150 155.329,305.218 154.995,305.174 154.951 C 305.130 154.907,304.990 155.169,304.863 155.533 M87.562 156.151 C 87.435 156.515,87.367 156.848,87.411 156.893 C 87.455 156.937,87.595 156.675,87.722 156.311 C 87.849 155.947,87.916 155.613,87.872 155.569 C 87.828 155.525,87.688 155.787,87.562 156.151 M261.380 156.128 C 261.622 156.468,261.866 156.746,261.923 156.746 C 261.980 156.746,261.828 156.468,261.586 156.128 C 261.344 155.788,261.100 155.510,261.043 155.510 C 260.986 155.510,261.138 155.788,261.380 156.128 M119.479 155.969 C 119.455 156.213,120.126 157.800,120.215 157.711 C 120.260 157.666,120.116 157.222,119.895 156.724 C 119.674 156.226,119.487 155.886,119.479 155.969 M78.809 157.312 C 78.614 157.963,78.407 158.635,78.347 158.805 C 78.251 159.080,78.263 159.080,78.462 158.805 C 78.736 158.426,79.372 156.337,79.250 156.215 C 79.201 156.166,79.003 156.660,78.809 157.312 M206.835 156.450 C 207.025 156.669,207.489 157.024,207.865 157.238 C 208.671 157.698,208.459 157.470,207.312 156.645 C 206.833 156.300,206.633 156.218,206.835 156.450 M219.678 156.770 C 218.596 157.583,218.495 157.717,219.324 157.241 C 219.908 156.905,220.827 156.100,220.578 156.142 C 220.532 156.150,220.127 156.432,219.678 156.770 M68.034 157.070 L 67.456 157.600 68.126 157.134 C 68.494 156.878,68.795 156.639,68.795 156.604 C 68.795 156.441,68.567 156.581,68.034 157.070 M61.586 156.847 C 61.586 156.988,62.847 157.613,62.941 157.519 C 62.986 157.474,62.699 157.283,62.304 157.095 C 61.909 156.906,61.586 156.795,61.586 156.847 M336.987 157.261 C 336.987 157.374,337.119 157.698,337.281 157.981 C 337.443 158.265,337.576 158.404,337.576 158.290 C 337.576 158.177,337.443 157.853,337.281 157.570 C 337.119 157.286,336.987 157.147,336.987 157.261 M262.822 158.187 C 263.064 158.527,263.308 158.805,263.365 158.805 C 263.421 158.805,263.270 158.527,263.028 158.187 C 262.786 157.848,262.541 157.570,262.485 157.570 C 262.428 157.570,262.580 157.848,262.822 158.187 M230.368 158.532 C 230.051 158.948,229.897 159.223,230.025 159.143 C 230.289 158.980,231.181 157.775,231.037 157.775 C 230.987 157.775,230.685 158.116,230.368 158.532 M64.936 158.129 C 65.249 158.177,65.712 158.175,65.966 158.126 C 66.219 158.078,65.963 158.039,65.396 158.040 C 64.830 158.042,64.623 158.082,64.936 158.129 M209.887 158.166 C 210.057 158.270,210.566 158.410,211.020 158.476 C 211.603 158.561,211.693 158.547,211.329 158.425 C 210.383 158.111,209.556 157.962,209.887 158.166 M303.627 158.622 C 303.501 158.986,303.433 159.320,303.477 159.364 C 303.521 159.408,303.661 159.146,303.788 158.782 C 303.915 158.418,303.982 158.085,303.938 158.041 C 303.894 157.996,303.754 158.258,303.627 158.622 M196.704 158.805 C 196.946 159.145,197.191 159.423,197.247 159.423 C 197.304 159.423,197.152 159.145,196.910 158.805 C 196.668 158.465,196.424 158.187,196.367 158.187 C 196.311 158.187,196.462 158.465,196.704 158.805 M328.562 159.022 C 328.682 159.367,328.819 159.612,328.866 159.565 C 328.968 159.463,328.579 158.393,328.440 158.393 C 328.387 158.393,328.441 158.676,328.562 159.022 M212.929 158.749 C 213.299 158.794,213.855 158.794,214.164 158.747 C 214.474 158.700,214.171 158.662,213.491 158.663 C 212.812 158.664,212.558 158.703,212.929 158.749 M120.724 159.114 C 120.728 159.228,120.909 159.691,121.127 160.144 C 121.345 160.597,121.466 160.736,121.395 160.453 C 121.250 159.870,120.713 158.799,120.724 159.114 M263.852 159.629 C 264.094 159.969,264.338 160.247,264.395 160.247 C 264.451 160.247,264.300 159.969,264.058 159.629 C 263.816 159.289,263.571 159.011,263.515 159.011 C 263.458 159.011,263.610 159.289,263.852 159.629 M229.132 160.093 L 228.527 160.762 229.197 160.157 C 229.821 159.593,229.961 159.423,229.802 159.423 C 229.766 159.423,229.465 159.725,229.132 160.093 M94.885 160.487 C 94.699 160.962,94.580 161.384,94.621 161.425 C 94.662 161.466,94.851 161.114,95.039 160.642 C 95.228 160.170,95.347 159.748,95.303 159.704 C 95.260 159.661,95.071 160.013,94.885 160.487 M111.921 159.835 C 112.102 160.504,112.724 161.907,112.804 161.827 C 112.850 161.780,112.652 161.244,112.363 160.634 C 112.074 160.025,111.875 159.665,111.921 159.835 M52.723 160.357 L 52.233 160.878 53.147 161.747 L 54.061 162.616 53.253 161.744 L 52.446 160.871 52.932 160.353 C 53.200 160.068,53.373 159.835,53.316 159.835 C 53.259 159.835,52.992 160.070,52.723 160.357 M198.764 161.174 C 199.494 161.910,200.137 162.513,200.194 162.513 C 200.251 162.513,199.700 161.910,198.970 161.174 C 198.240 160.438,197.597 159.835,197.540 159.835 C 197.484 159.835,198.034 160.438,198.764 161.174 M264.882 161.071 C 265.124 161.411,265.368 161.689,265.425 161.689 C 265.481 161.689,265.330 161.411,265.088 161.071 C 264.846 160.731,264.601 160.453,264.545 160.453 C 264.488 160.453,264.640 160.731,264.882 161.071 M302.392 161.712 C 302.265 162.076,302.197 162.410,302.241 162.454 C 302.285 162.498,302.425 162.236,302.552 161.872 C 302.679 161.508,302.746 161.174,302.702 161.130 C 302.658 161.086,302.518 161.348,302.392 161.712 M227.177 162.049 L 226.468 162.822 227.240 162.112 C 227.959 161.451,228.107 161.277,227.950 161.277 C 227.915 161.277,227.568 161.625,227.177 162.049 M329.572 161.380 C 329.572 161.493,329.704 161.818,329.866 162.101 C 330.028 162.384,330.160 162.523,330.160 162.410 C 330.160 162.297,330.028 161.972,329.866 161.689 C 329.704 161.406,329.572 161.267,329.572 161.380 M75.592 162.616 C 75.092 163.126,74.729 163.543,74.785 163.543 C 74.842 163.543,75.298 163.126,75.798 162.616 C 76.298 162.106,76.661 161.689,76.605 161.689 C 76.548 161.689,76.092 162.106,75.592 162.616 M200.486 162.672 C 200.649 162.936,201.854 163.827,201.854 163.684 C 201.854 163.633,201.513 163.332,201.098 163.015 C 200.682 162.698,200.406 162.543,200.486 162.672 M266.323 163.131 C 266.565 163.471,266.810 163.749,266.866 163.749 C 266.923 163.749,266.771 163.471,266.529 163.131 C 266.287 162.791,266.043 162.513,265.986 162.513 C 265.930 162.513,266.081 162.791,266.323 163.131 M93.649 163.577 C 93.463 164.052,93.344 164.473,93.385 164.515 C 93.427 164.556,93.615 164.204,93.804 163.732 C 93.992 163.260,94.111 162.838,94.068 162.794 C 94.024 162.750,93.836 163.103,93.649 163.577 M225.644 163.252 L 225.026 163.783 225.695 163.340 C 226.063 163.096,226.365 162.857,226.365 162.808 C 226.365 162.654,226.277 162.707,225.644 163.252 M113.300 163.234 C 113.300 163.347,113.432 163.671,113.594 163.955 C 113.756 164.238,113.889 164.377,113.889 164.264 C 113.889 164.150,113.756 163.826,113.594 163.543 C 113.432 163.260,113.300 163.120,113.300 163.234 M339.458 163.178 C 339.435 163.422,340.106 165.009,340.195 164.920 C 340.240 164.875,340.096 164.431,339.875 163.933 C 339.654 163.435,339.466 163.095,339.458 163.178 M73.635 164.282 L 73.018 164.813 73.687 164.370 C 74.055 164.126,74.356 163.887,74.356 163.838 C 74.356 163.683,74.269 163.737,73.635 164.282 M330.611 163.852 C 330.614 163.965,330.796 164.428,331.014 164.882 C 331.232 165.335,331.352 165.474,331.282 165.191 C 331.137 164.607,330.600 163.537,330.611 163.852 M56.334 164.267 C 56.560 164.452,56.931 164.694,57.158 164.805 L 57.570 165.007 57.158 164.672 C 56.931 164.487,56.560 164.245,56.334 164.134 L 55.922 163.932 56.334 164.267 M267.353 164.573 C 267.595 164.912,267.840 165.191,267.896 165.191 C 267.953 165.191,267.801 164.912,267.559 164.573 C 267.317 164.233,267.073 163.955,267.016 163.955 C 266.960 163.955,267.111 164.233,267.353 164.573 M301.156 164.801 C 301.029 165.165,300.961 165.499,301.005 165.543 C 301.049 165.587,301.189 165.326,301.316 164.962 C 301.443 164.598,301.511 164.264,301.467 164.220 C 301.423 164.176,301.283 164.437,301.156 164.801 M71.473 165.499 C 70.963 165.772,70.619 166.000,70.709 166.005 C 70.927 166.018,72.503 165.208,72.503 165.083 C 72.503 164.947,72.511 164.943,71.473 165.499 M123.290 165.396 C 123.366 165.680,123.514 166.050,123.619 166.220 C 123.751 166.435,123.768 166.372,123.672 166.014 C 123.596 165.731,123.448 165.360,123.343 165.191 C 123.211 164.976,123.194 165.039,123.290 165.396 M58.908 165.705 C 59.192 165.867,59.516 166.000,59.629 166.000 C 59.743 166.000,59.604 165.867,59.320 165.705 C 59.037 165.544,58.713 165.411,58.599 165.411 C 58.486 165.411,58.625 165.544,58.908 165.705 M205.664 165.713 C 206.004 165.869,206.421 165.993,206.591 165.989 C 206.761 165.986,206.576 165.858,206.179 165.705 C 205.239 165.343,204.869 165.349,205.664 165.713 M220.803 165.705 C 220.407 165.858,220.221 165.986,220.391 165.989 C 220.561 165.993,220.978 165.869,221.318 165.713 C 222.114 165.349,221.744 165.343,220.803 165.705 M62.307 166.853 C 62.918 166.994,67.647 167.078,67.250 166.941 C 67.137 166.902,65.839 166.834,64.367 166.790 C 62.894 166.747,61.967 166.775,62.307 166.853 M209.938 166.774 C 210.136 166.826,210.461 166.826,210.659 166.774 C 210.857 166.723,210.695 166.680,210.299 166.680 C 209.902 166.680,209.740 166.723,209.938 166.774 M216.323 166.774 C 216.522 166.826,216.846 166.826,217.044 166.774 C 217.243 166.723,217.080 166.680,216.684 166.680 C 216.287 166.680,216.125 166.723,216.323 166.774 M212.315 166.991 C 213.027 167.031,214.140 167.031,214.787 166.990 C 215.434 166.950,214.851 166.917,213.491 166.917 C 212.132 166.917,211.602 166.951,212.315 166.991 " stroke="none" fill="#89558f" fill-rule="evenodd"></path><path id="path7" d="M0.000 102.987 L 0.000 205.973 200.000 205.973 L 400.000 205.973 400.000 102.987 L 400.000 0.000 200.000 0.000 L 0.000 0.000 0.000 102.987 M94.393 42.482 C 96.569 46.409,100.262 52.999,101.703 55.525 C 102.613 57.119,104.309 60.131,105.473 62.219 C 109.479 69.407,111.166 72.426,116.166 81.359 C 121.344 90.608,124.435 96.138,127.911 102.369 C 129.018 104.351,130.985 107.873,132.283 110.196 L 134.644 114.418 93.653 114.470 C 71.107 114.499,52.628 114.489,52.587 114.448 C 52.546 114.407,52.851 113.781,53.264 113.057 C 53.677 112.333,55.101 109.794,56.430 107.415 C 57.758 105.036,60.868 99.475,63.340 95.057 C 67.890 86.926,70.909 81.525,74.566 74.974 C 75.673 72.992,78.473 67.987,80.789 63.852 C 92.404 43.116,93.492 41.195,93.616 41.195 C 93.651 41.195,94.001 41.774,94.393 42.482 M130.841 45.734 C 132.200 48.165,133.937 51.267,134.703 52.626 C 138.283 58.986,140.931 63.706,143.252 67.868 C 144.642 70.360,146.637 73.929,147.686 75.798 C 148.734 77.667,150.494 80.819,151.598 82.801 C 152.701 84.784,154.879 88.677,156.437 91.452 C 157.995 94.228,160.174 98.120,161.280 100.103 C 165.363 107.423,168.024 112.184,168.678 113.337 L 169.349 114.521 152.388 114.520 L 135.427 114.520 134.415 112.718 C 133.023 110.240,129.190 103.381,126.158 97.940 C 124.769 95.448,122.591 91.555,121.318 89.289 C 114.020 76.306,111.229 71.225,111.311 71.076 C 112.863 68.273,119.375 56.661,122.005 52.008 C 123.094 50.082,124.891 46.862,125.999 44.852 C 127.106 42.842,128.093 41.223,128.191 41.255 C 128.290 41.288,129.482 43.303,130.841 45.734 M164.173 43.783 C 164.927 45.135,166.450 47.863,167.558 49.846 C 168.666 51.828,169.823 53.913,170.130 54.480 C 170.437 55.046,171.780 57.456,173.115 59.835 C 174.451 62.214,176.471 65.829,177.605 67.868 C 178.739 69.907,179.785 71.761,179.929 71.988 C 180.073 72.214,181.114 74.068,182.241 76.107 C 184.766 80.673,188.436 87.243,194.954 98.867 C 196.510 101.643,198.688 105.536,199.793 107.518 C 200.899 109.501,202.225 111.864,202.741 112.770 C 203.466 114.045,203.615 114.453,203.400 114.574 C 203.247 114.659,195.678 114.706,186.581 114.677 L 170.040 114.624 169.299 113.285 C 168.891 112.549,167.415 109.907,166.019 107.415 C 164.624 104.923,162.627 101.354,161.581 99.485 C 156.900 91.113,154.793 87.343,152.486 83.213 C 151.125 80.778,149.071 77.101,147.920 75.043 C 146.770 72.985,145.829 71.193,145.829 71.061 C 145.829 70.929,146.772 69.137,147.925 67.079 C 149.078 65.021,151.083 61.437,152.381 59.114 C 153.680 56.792,155.318 53.872,156.023 52.626 C 156.728 51.380,158.452 48.298,159.855 45.777 C 161.257 43.256,162.494 41.223,162.603 41.259 C 162.712 41.295,163.418 42.431,164.173 43.783 M199.179 44.954 C 200.340 47.021,202.704 51.215,204.433 54.274 C 206.162 57.333,208.220 60.994,209.006 62.410 C 211.360 66.651,214.403 72.097,217.405 77.446 C 218.963 80.221,221.142 84.114,222.248 86.097 C 223.354 88.079,225.320 91.601,226.618 93.924 C 227.916 96.246,230.996 101.761,233.463 106.179 C 235.929 110.597,237.988 114.282,238.038 114.367 C 238.088 114.452,230.532 114.521,221.246 114.521 L 204.363 114.521 203.029 112.101 C 202.296 110.770,200.655 107.827,199.383 105.561 C 198.111 103.296,196.165 99.820,195.059 97.837 C 191.770 91.943,188.575 86.225,184.262 78.513 C 181.840 74.183,180.242 71.112,180.313 70.926 C 180.379 70.754,181.376 68.930,182.529 66.872 C 183.682 64.814,185.498 61.555,186.565 59.629 C 187.632 57.703,188.807 55.618,189.176 54.995 C 189.544 54.372,190.727 52.286,191.805 50.360 C 192.882 48.435,194.476 45.584,195.347 44.027 C 196.219 42.469,196.962 41.195,197.000 41.195 C 197.037 41.195,198.018 42.886,199.179 44.954 M231.368 43.203 C 234.179 48.183,239.162 57.046,240.892 60.144 C 241.936 62.013,243.879 65.489,245.210 67.868 C 246.541 70.247,248.767 74.233,250.157 76.725 C 251.546 79.217,253.492 82.693,254.480 84.449 C 255.468 86.205,257.413 89.681,258.803 92.173 C 260.193 94.665,262.419 98.651,263.750 101.030 C 265.080 103.409,267.074 106.977,268.180 108.960 C 269.286 110.942,270.428 112.976,270.717 113.480 C 271.006 113.983,271.196 114.469,271.139 114.561 C 271.011 114.768,239.324 114.777,239.005 114.569 C 238.878 114.486,238.360 113.677,237.856 112.770 C 237.351 111.864,235.794 109.083,234.395 106.591 C 231.793 101.954,230.236 99.167,225.703 91.040 C 224.281 88.491,222.076 84.552,220.803 82.286 C 219.529 80.021,217.564 76.498,216.434 74.459 C 215.305 72.420,214.297 70.664,214.194 70.556 C 213.808 70.153,214.050 69.523,215.727 66.571 C 216.673 64.906,218.032 62.477,218.747 61.174 C 219.462 59.871,220.739 57.600,221.584 56.128 C 222.429 54.655,224.257 51.411,225.646 48.919 C 229.616 41.793,229.961 41.195,230.102 41.195 C 230.175 41.195,230.745 42.098,231.368 43.203 M265.227 43.821 C 267.068 47.145,270.879 53.940,273.226 58.084 C 274.220 59.840,275.884 62.806,276.923 64.676 C 277.963 66.545,280.840 71.689,283.317 76.107 C 285.793 80.525,288.853 85.994,290.115 88.260 C 292.330 92.235,294.665 96.410,299.791 105.561 C 303.550 112.274,304.634 114.250,304.634 114.391 C 304.634 114.463,297.289 114.521,288.311 114.520 L 271.988 114.520 270.977 112.718 C 269.733 110.502,266.090 103.983,262.718 97.940 C 260.183 93.398,257.562 88.711,253.043 80.639 C 248.476 72.481,247.374 70.466,247.374 70.279 C 247.374 70.177,248.175 68.665,249.154 66.921 C 251.940 61.956,254.479 57.439,256.437 53.965 C 259.996 47.652,262.179 43.747,262.855 42.485 C 263.724 40.864,263.527 40.753,265.227 43.821 M299.130 45.264 C 300.313 47.387,302.143 50.654,303.197 52.523 C 307.726 60.558,309.740 64.150,315.549 74.562 C 316.528 76.318,319.354 81.370,321.829 85.788 C 327.317 95.586,330.398 101.098,333.112 105.973 C 334.247 108.012,335.766 110.719,336.486 111.989 C 337.207 113.258,337.796 114.347,337.796 114.409 C 337.796 114.471,330.543 114.521,321.679 114.521 L 305.561 114.521 304.662 112.925 C 304.167 112.047,302.677 109.382,301.351 107.003 C 299.013 102.809,292.593 91.330,287.642 82.492 C 286.309 80.113,284.295 76.498,283.167 74.459 C 282.039 72.420,281.032 70.664,280.929 70.556 C 280.461 70.067,280.561 69.876,290.106 52.935 C 291.543 50.386,293.613 46.710,294.707 44.765 C 295.801 42.820,296.760 41.268,296.838 41.316 C 296.915 41.364,297.947 43.141,299.130 45.264 M71.576 125.228 C 74.310 125.984,78.270 128.261,78.270 129.077 C 78.270 129.380,77.253 130.570,74.020 134.052 L 72.812 135.353 71.249 134.525 C 67.756 132.672,66.071 132.368,64.774 133.357 C 61.919 135.535,63.006 138.795,67.250 140.783 C 68.043 141.155,69.618 141.892,70.749 142.423 C 78.884 146.235,81.674 152.681,78.131 159.476 C 73.473 168.410,61.560 169.582,53.251 161.924 C 52.090 160.853,51.916 161.288,54.920 157.741 C 58.479 153.539,58.019 153.795,59.570 155.153 C 63.013 158.167,66.025 158.744,68.183 156.804 C 71.737 153.609,70.049 151.031,62.410 147.987 C 56.095 145.470,53.877 142.576,53.889 136.869 C 53.908 127.990,62.091 122.604,71.576 125.228 M218.130 125.308 C 228.032 127.328,234.277 135.259,234.290 145.829 C 234.305 158.454,225.969 166.912,213.491 166.931 C 202.642 166.948,194.517 160.084,193.005 149.623 C 190.756 134.065,202.995 122.221,218.130 125.308 M107.726 126.777 C 108.271 128.162,110.560 133.794,111.535 136.148 C 112.479 138.431,114.793 144.118,115.348 145.520 C 115.661 146.313,116.152 147.518,116.437 148.198 C 117.245 150.120,118.424 152.998,119.053 154.583 C 119.368 155.376,119.856 156.581,120.138 157.261 C 121.740 161.118,123.629 165.754,123.726 166.066 C 123.830 166.402,123.522 166.426,119.200 166.426 L 114.561 166.426 114.352 165.860 C 114.236 165.548,113.803 164.506,113.390 163.543 C 112.976 162.580,112.358 161.074,112.016 160.196 L 111.395 158.599 103.622 158.599 L 95.848 158.599 94.302 162.461 L 92.756 166.323 88.191 166.379 C 85.446 166.412,83.625 166.357,83.625 166.241 C 83.625 166.058,88.140 154.588,88.985 152.626 C 89.204 152.116,89.580 151.189,89.820 150.566 C 90.060 149.943,90.516 148.785,90.834 147.992 C 91.152 147.199,91.609 146.040,91.848 145.417 C 92.088 144.794,92.465 143.867,92.686 143.357 C 92.906 142.848,93.519 141.320,94.046 139.963 C 94.574 138.606,95.129 137.216,95.281 136.874 C 95.432 136.531,95.986 135.139,96.510 133.780 C 97.034 132.420,97.587 131.030,97.737 130.690 C 97.988 130.124,99.161 127.160,99.675 125.793 L 99.890 125.222 103.524 125.278 L 107.158 125.335 107.726 126.777 M148.221 125.687 C 154.478 127.565,157.828 133.461,156.464 140.193 C 155.114 146.859,150.297 150.273,141.658 150.688 L 139.032 150.814 139.032 158.620 L 139.032 166.426 134.398 166.426 L 129.763 166.426 129.763 145.966 C 129.763 134.713,129.832 125.438,129.916 125.353 C 130.231 125.038,147.082 125.346,148.221 125.687 M186.921 129.351 L 186.921 133.368 179.763 133.422 L 172.606 133.476 172.606 137.487 L 172.606 141.498 179.763 141.552 L 186.921 141.607 186.921 145.726 L 186.921 149.846 179.763 149.900 L 172.606 149.954 172.606 158.190 L 172.606 166.426 168.074 166.426 L 163.543 166.426 163.543 145.827 L 163.543 125.228 175.232 125.282 L 186.921 125.335 186.921 129.351 M252.065 128.012 C 253.121 129.485,254.209 131.014,254.481 131.411 C 254.753 131.807,257.207 135.237,259.933 139.032 C 262.660 142.827,265.699 147.076,266.688 148.474 L 268.486 151.016 268.539 138.124 L 268.592 125.232 273.122 125.232 L 277.652 125.232 277.652 145.829 L 277.652 166.426 273.155 166.426 L 268.657 166.426 266.512 163.405 C 265.332 161.744,264.065 159.959,263.696 159.440 C 263.327 158.921,262.732 158.079,262.374 157.570 C 261.495 156.319,260.694 155.185,259.888 154.052 C 259.519 153.533,257.225 150.293,254.789 146.853 L 250.360 140.598 250.307 153.516 L 250.254 166.434 245.673 166.379 L 241.092 166.323 241.035 146.241 C 241.004 135.196,241.029 125.948,241.091 125.691 L 241.205 125.224 245.674 125.279 L 250.143 125.335 252.065 128.012 M296.139 145.884 L 296.191 166.434 291.608 166.379 L 287.024 166.323 286.971 146.035 C 286.941 134.876,286.962 125.629,287.017 125.485 C 287.094 125.282,288.126 125.236,291.602 125.279 L 296.087 125.335 296.139 145.884 M324.266 125.592 C 324.327 125.790,324.743 126.833,325.190 127.909 C 326.366 130.742,328.150 135.106,329.464 138.363 C 330.092 139.920,330.734 141.473,330.889 141.813 C 331.044 142.152,331.373 142.940,331.620 143.563 C 332.670 146.213,333.261 147.683,333.939 149.331 C 334.938 151.756,336.706 156.097,338.092 159.526 C 338.733 161.112,339.384 162.688,339.540 163.028 C 339.695 163.368,340.003 164.109,340.225 164.676 C 340.446 165.242,340.695 165.868,340.778 166.066 C 340.920 166.403,340.630 166.426,336.301 166.426 L 331.673 166.426 331.156 165.242 C 330.872 164.591,330.299 163.223,329.882 162.204 C 329.466 161.184,328.945 159.955,328.725 159.472 L 328.324 158.594 320.584 158.648 L 312.843 158.702 311.323 162.513 L 309.803 166.323 305.262 166.379 C 301.420 166.426,300.721 166.389,300.721 166.138 C 300.721 165.912,314.989 130.017,316.674 126.004 L 316.998 125.232 320.576 125.232 C 323.803 125.232,324.165 125.267,324.266 125.592 M138.826 138.034 L 138.826 143.214 141.086 143.085 C 144.889 142.867,146.855 141.383,147.200 138.470 C 147.606 135.043,145.060 132.853,140.670 132.853 L 138.826 132.853 138.826 138.034 M211.739 133.460 C 199.743 135.065,199.000 155.166,210.825 158.190 C 218.437 160.137,224.714 154.575,224.716 145.883 C 224.718 137.718,219.223 132.458,211.739 133.460 M103.235 139.991 C 103.109 140.313,102.302 142.384,101.442 144.593 C 100.581 146.802,99.696 149.044,99.475 149.575 C 99.254 150.106,99.073 150.592,99.073 150.656 C 99.073 150.720,101.112 150.772,103.605 150.772 C 106.097 150.772,108.136 150.717,108.136 150.649 C 108.136 150.581,108.001 150.234,107.837 149.877 C 107.552 149.260,105.969 145.379,104.547 141.813 C 103.568 139.359,103.513 139.282,103.235 139.991 M320.283 139.972 C 320.173 140.263,320.082 140.552,320.082 140.616 C 320.082 140.679,319.855 141.253,319.578 141.890 C 318.815 143.641,316.169 150.401,316.169 150.599 C 316.169 150.694,318.162 150.772,320.597 150.772 C 324.005 150.772,325.025 150.713,325.022 150.515 C 325.020 150.373,324.691 149.470,324.290 148.507 C 323.890 147.544,323.389 146.292,323.177 145.726 C 322.966 145.160,322.453 143.908,322.038 142.945 C 321.624 141.982,321.144 140.801,320.973 140.319 C 320.609 139.297,320.551 139.267,320.283 139.972 " stroke="none" fill="none" fill-rule="evenodd"></path><path id="path8" d="M63.654 125.135 C 55.823 126.552,51.707 135.065,55.328 142.356 C 56.639 144.996,58.352 146.246,63.337 148.200 C 70.000 150.813,71.705 153.682,68.465 156.829 C 66.344 158.889,63.565 158.520,60.068 155.714 C 59.081 154.922,58.240 154.274,58.198 154.274 C 58.157 154.274,57.034 155.548,55.702 157.106 C 54.370 158.664,53.087 160.157,52.850 160.423 L 52.420 160.909 53.651 162.032 C 59.874 167.710,67.948 168.474,74.035 163.961 C 80.452 159.204,81.147 150.624,75.533 145.493 C 74.310 144.375,72.606 143.408,69.104 141.842 C 63.876 139.505,62.191 137.472,63.311 134.854 C 64.437 132.224,66.913 132.011,71.011 134.191 C 71.970 134.701,72.774 135.118,72.798 135.118 C 72.821 135.118,74.077 133.762,75.590 132.104 L 78.340 129.089 77.635 128.502 C 74.023 125.491,68.731 124.216,63.654 125.135 M209.553 125.218 C 201.490 126.502,194.706 133.461,193.299 141.892 C 190.784 156.964,201.851 168.643,216.759 166.649 C 228.636 165.060,236.276 153.651,233.802 141.195 C 231.649 130.349,221.076 123.383,209.553 125.218 M99.927 125.798 C 99.551 126.511,83.831 165.966,83.831 166.198 C 83.831 166.370,85.014 166.420,88.203 166.379 L 92.575 166.323 94.146 162.410 L 95.717 158.496 103.595 158.496 L 111.474 158.496 112.291 160.453 C 112.740 161.529,113.339 162.966,113.622 163.646 C 113.905 164.325,114.283 165.229,114.463 165.654 L 114.790 166.426 119.201 166.426 L 123.612 166.426 123.471 165.963 C 123.313 165.440,120.656 158.883,120.153 157.775 C 119.973 157.379,119.658 156.591,119.453 156.025 C 119.248 155.458,118.787 154.300,118.428 153.450 C 118.070 152.600,117.192 150.469,116.478 148.713 C 115.764 146.957,114.763 144.501,114.253 143.254 C 113.744 142.008,112.910 139.969,112.400 138.723 C 110.752 134.693,108.556 129.296,107.770 127.343 L 107.003 125.439 103.560 125.438 C 100.491 125.438,100.097 125.477,99.927 125.798 M129.969 145.922 L 129.969 166.426 134.398 166.426 L 138.826 166.426 138.826 158.496 C 138.826 151.085,138.850 150.566,139.186 150.556 C 149.537 150.255,153.643 148.120,155.847 141.894 C 158.210 135.222,155.213 128.427,148.883 126.107 L 147.374 125.553 138.671 125.485 L 129.969 125.417 129.969 145.922 M163.749 145.932 L 163.749 166.426 168.177 166.426 L 172.606 166.426 172.606 158.087 L 172.606 149.748 179.660 149.694 L 186.715 149.640 186.771 145.675 L 186.827 141.710 179.716 141.710 L 172.606 141.710 172.606 137.487 L 172.606 133.265 179.712 133.265 L 186.818 133.265 186.818 129.351 L 186.818 125.438 175.283 125.438 L 163.749 125.438 163.749 145.932 M241.195 145.928 L 241.195 166.426 245.623 166.426 L 250.051 166.426 250.051 153.347 C 250.051 146.153,250.121 140.272,250.206 140.277 C 250.291 140.281,251.649 142.112,253.224 144.345 C 254.799 146.577,258.958 152.459,262.467 157.415 L 268.847 166.426 273.146 166.426 L 277.446 166.426 277.446 145.932 L 277.446 125.438 273.120 125.438 L 268.795 125.438 268.795 138.328 C 268.795 152.437,268.857 151.850,267.570 150.004 C 267.168 149.426,263.409 144.164,259.217 138.310 C 255.026 132.457,251.263 127.189,250.855 126.604 L 250.114 125.541 245.654 125.485 L 241.195 125.430 241.195 145.928 M287.127 145.932 L 287.127 166.426 291.555 166.426 L 295.984 166.426 295.984 145.932 L 295.984 125.438 291.555 125.438 L 287.127 125.438 287.127 145.932 M314.581 131.664 C 313.208 135.093,309.566 144.202,306.487 151.905 C 303.409 159.609,300.841 166.029,300.782 166.173 C 300.696 166.381,301.596 166.423,305.151 166.379 L 309.629 166.323 311.199 162.410 L 312.770 158.496 320.656 158.496 L 328.542 158.496 329.266 160.247 C 329.664 161.210,330.118 162.322,330.276 162.719 C 330.433 163.115,330.831 164.089,331.161 164.882 L 331.760 166.323 336.220 166.379 C 338.673 166.409,340.680 166.383,340.680 166.321 C 340.680 166.258,340.531 165.863,340.350 165.441 C 340.168 165.020,339.436 163.239,338.723 161.483 C 338.009 159.727,337.101 157.503,336.706 156.540 C 335.751 154.218,333.889 149.656,332.544 146.344 C 329.038 137.713,327.870 134.848,325.907 130.072 C 325.395 128.826,324.773 127.297,324.525 126.674 L 324.075 125.541 320.575 125.485 L 317.076 125.428 314.581 131.664 M144.071 133.183 C 150.223 135.326,147.735 143.176,140.886 143.236 L 138.723 143.254 138.668 138.069 C 138.617 133.263,138.640 132.876,138.977 132.776 C 139.689 132.563,143.065 132.833,144.071 133.183 M217.464 133.844 C 227.204 137.299,227.557 153.857,217.976 157.859 C 210.033 161.177,202.285 155.381,202.269 146.109 C 202.253 136.673,209.331 130.959,217.464 133.844 M104.167 140.422 C 104.408 141.074,105.222 143.090,105.976 144.902 C 107.904 149.541,108.339 150.707,108.194 150.852 C 107.995 151.050,99.111 151.000,98.987 150.799 C 98.891 150.644,99.683 148.541,102.409 141.710 C 102.748 140.860,103.107 139.956,103.207 139.701 C 103.487 138.985,103.691 139.138,104.167 140.422 M321.402 140.886 C 321.685 141.622,322.626 143.939,323.493 146.035 C 324.360 148.131,325.117 150.100,325.174 150.412 L 325.278 150.978 320.736 150.978 C 315.566 150.978,315.743 151.048,316.448 149.277 C 316.730 148.570,317.669 146.190,318.535 143.988 C 320.731 138.404,320.530 138.622,321.402 140.886 " stroke="none" fill="#fffffe" fill-rule="evenodd"></path></g></svg>